<?xml version="1.0" encoding="UTF-8" standalone="no"?>
<!DOCTYPE svg PUBLIC "-//W3C//DTD SVG 1.1//EN" "http://www.w3.org/Graphics/SVG/1.1/DTD/svg11.dtd">
<svg version="1.1" xmlns="http://www.w3.org/2000/svg" xmlns:xlink="http://www.w3.org/1999/xlink" preserveAspectRatio="xMidYMid meet" viewBox="0 0 640 640" width="640" height="640"><defs><path d="M313.01 145L313.51 145L314.01 145.01L314.52 145.01L315.02 145.02L315.53 145.02L316.03 145.03L316.53 145.04L317.04 145.05L317.54 145.06L318.04 145.08L318.55 145.09L319.05 145.1L319.55 145.12L320.05 145.14L320.56 145.15L321.06 145.17L321.56 145.19L322.06 145.21L322.56 145.23L323.06 145.26L323.57 145.28L324.07 145.3L324.57 145.33L325.07 145.36L325.57 145.38L326.07 145.41L326.57 145.44L327.07 145.47L327.57 145.51L328.07 145.54L328.57 145.57L329.07 145.61L329.57 145.64L330.06 145.68L330.56 145.72L331.06 145.75L331.56 145.79L332.06 145.83L332.08 145.84L332.11 145.84L332.14 145.84L332.16 145.84L332.19 145.84L332.23 145.85L332.26 145.85L332.29 145.85L332.32 145.85L332.35 145.86L332.39 145.86L332.43 145.87L332.48 145.87L332.57 145.88L334.46 146.04L336.34 146.23L338.22 146.42L340.09 146.63L341.96 146.86L343.83 147.1L345.7 147.35L347.57 147.62L349.43 147.9L351.28 148.2L353.14 148.51L354.99 148.84L356.84 149.18L358.69 149.53L360.53 149.91L362.37 150.29L364.2 150.69L366.03 151.1L367.86 151.53L369.69 151.97L371.51 152.43L373.33 152.9L375.14 153.39L376.96 153.89L378.76 154.4L380.57 154.93L382.37 155.48L384.17 156.04L385.96 156.61L387.75 157.2L389.53 157.8L391.31 158.41L393.09 159.05L394.86 159.69L396.63 160.35L398.4 161.02L400.16 161.71L401.92 162.41L403.67 163.13L405.42 163.86L407.56 164.78L409.68 165.72L411.8 166.67L413.9 167.65L416 168.64L418.08 169.65L420.15 170.69L422.21 171.74L424.26 172.81L426.3 173.9L428.32 175.01L430.33 176.14L432.34 177.29L434.33 178.45L436.3 179.64L438.27 180.84L440.22 182.06L442.17 183.31L444.1 184.57L446.01 185.85L447.92 187.14L449.81 188.46L451.69 189.8L453.56 191.15L455.42 192.52L457.26 193.91L459.09 195.32L460.91 196.75L462.71 198.2L464.51 199.66L466.28 201.14L468.05 202.64L469.8 204.16L471.54 205.7L473.27 207.25L474.98 208.82L476.68 210.41L478.37 212.02L480.04 213.65L481.7 215.29L483.35 216.95L484.97 218.62L486.58 220.31L488.17 222.01L489.74 223.72L491.3 225.45L492.83 227.19L494.35 228.94L495.85 230.71L497.33 232.49L498.8 234.28L500.24 236.09L501.67 237.9L503.08 239.73L504.47 241.58L505.84 243.43L507.2 245.3L508.53 247.18L509.85 249.07L511.15 250.98L512.43 252.9L513.69 254.83L514.93 256.77L516.15 258.72L517.36 260.69L518.54 262.67L519.71 264.66L520.86 266.66L521.98 268.67L523.09 270.7L524.18 272.73L525.25 274.78L526.31 276.84L527.34 278.91L528.35 281L529.35 283.09L530.32 285.19L531.28 287.31L532.21 289.44L533.13 291.58L534.06 293.8L534.96 296.03L535.84 298.26L536.7 300.51L537.54 302.76L538.35 305.01L539.14 307.28L539.9 309.55L540.64 311.82L541.36 314.1L542.05 316.39L542.73 318.68L543.37 320.98L544 323.29L544.6 325.6L545.18 327.92L545.73 330.24L546.27 332.57L546.77 334.9L547.26 337.24L547.72 339.58L548.16 341.93L548.57 344.28L548.96 346.64L549.33 349.01L549.67 351.38L549.99 353.75L550.29 356.13L550.56 358.51L550.81 360.9L551.03 363.29L551.24 365.68L551.41 368.08L551.57 370.49L551.7 372.9L551.81 375.31L551.89 377.73L551.95 380.15L551.98 382.57L552 385L551.98 387.43L551.95 389.85L551.89 392.27L551.81 394.69L551.7 397.1L551.57 399.51L551.41 401.91L551.24 404.31L551.03 406.71L550.81 409.1L550.56 411.49L550.29 413.87L549.99 416.25L549.67 418.62L549.33 420.99L548.96 423.35L548.57 425.71L548.16 428.07L547.72 430.41L547.26 432.76L546.77 435.1L546.27 437.43L545.73 439.76L545.18 442.08L544.6 444.4L544 446.71L543.38 449.01L542.73 451.31L542.06 453.6L541.36 455.89L540.64 458.17L539.9 460.45L539.14 462.72L538.35 464.98L537.54 467.24L536.7 469.49L535.84 471.73L534.96 473.97L534.06 476.2L533.13 478.42L532.21 480.56L531.28 482.69L530.32 484.8L529.35 486.91L528.35 489L527.34 491.08L526.31 493.15L525.26 495.21L524.18 497.26L523.09 499.3L521.98 501.32L520.86 503.34L519.71 505.34L518.54 507.33L517.36 509.31L516.15 511.27L514.93 513.23L513.69 515.17L512.43 517.1L511.15 519.02L509.85 520.92L508.53 522.82L507.2 524.7L505.84 526.56L504.47 528.42L503.08 530.26L501.67 532.09L500.24 533.91L498.8 535.72L497.34 537.51L495.85 539.29L494.35 541.05L492.84 542.81L491.3 544.55L489.74 546.27L488.17 547.98L486.58 549.68L484.97 551.37L483.35 553.04L481.7 554.7L480.04 556.35L478.37 557.97L476.68 559.58L474.98 561.17L473.27 562.74L471.54 564.3L469.8 565.84L468.05 567.35L466.29 568.85L464.51 570.34L462.71 571.8L460.91 573.25L459.09 574.67L457.26 576.08L455.42 577.47L453.56 578.84L451.69 580.2L449.81 581.53L447.92 582.85L446.02 584.15L444.1 585.43L442.17 586.69L440.23 587.93L438.27 589.15L436.31 590.36L434.33 591.54L432.34 592.71L430.34 593.86L428.32 594.99L426.3 596.1L424.26 597.19L422.21 598.26L420.15 599.31L418.08 600.34L416 601.36L413.91 602.35L411.8 603.33L409.68 604.28L407.56 605.22L405.42 606.13L403.2 607.06L400.97 607.96L398.73 608.85L396.49 609.7L394.24 610.54L391.98 611.35L389.72 612.14L387.45 612.9L385.17 613.64L382.89 614.36L380.6 615.06L378.31 615.73L376.01 616.38L373.71 617L371.4 617.6L369.08 618.18L366.76 618.74L364.43 619.27L362.1 619.78L359.76 620.26L357.41 620.72L355.07 621.16L352.71 621.57L350.35 621.96L347.99 622.33L345.62 622.67L343.25 622.99L340.87 623.29L338.49 623.56L336.1 623.81L333.71 624.04L331.31 624.24L328.91 624.42L326.51 624.57L324.1 624.7L321.69 624.81L319.27 624.89L316.85 624.95L314.43 624.99L312 625L309.57 624.99L307.15 624.95L304.73 624.89L302.31 624.81L299.9 624.7L297.49 624.57L295.08 624.42L292.68 624.24L290.29 624.04L287.9 623.81L285.51 623.56L283.13 623.29L280.75 622.99L278.37 622.67L276.01 622.33L273.64 621.96L271.28 621.57L268.93 621.16L266.58 620.72L264.24 620.26L261.9 619.78L259.56 619.27L257.24 618.74L254.91 618.18L252.6 617.6L250.29 617L247.98 616.38L245.68 615.73L243.39 615.06L241.1 614.36L238.82 613.64L236.54 612.9L234.28 612.14L232.01 611.35L229.76 610.54L227.51 609.7L225.26 608.85L223.03 607.96L220.8 607.06L218.57 606.13L216.43 605.22L214.31 604.28L212.19 603.33L210.09 602.35L207.99 601.36L205.91 600.34L203.84 599.31L201.78 598.26L199.73 597.19L197.7 596.1L195.67 594.99L193.66 593.86L191.66 592.71L189.67 591.54L187.69 590.36L185.72 589.15L183.77 587.93L181.83 586.69L179.9 585.43L177.98 584.15L176.07 582.85L174.18 581.53L172.3 580.2L170.43 578.84L168.58 577.47L166.73 576.08L164.9 574.67L163.08 573.25L161.28 571.8L159.49 570.34L157.71 568.85L155.94 567.35L154.19 565.84L152.45 564.3L150.72 562.74L149.01 561.17L147.31 559.58L145.62 557.97L143.95 556.35L142.29 554.7L140.65 553.04L139.02 551.37L137.41 549.68L135.82 547.98L134.25 546.27L132.7 544.55L131.16 542.81L129.64 541.05L128.14 539.29L126.66 537.51L125.19 535.72L123.75 533.91L122.32 532.09L120.91 530.26L119.52 528.42L118.15 526.56L116.8 524.7L115.46 522.82L114.14 520.92L112.85 519.02L111.57 517.1L110.31 515.17L109.06 513.23L107.84 511.27L106.64 509.31L105.45 507.33L104.28 505.34L103.14 503.34L102.01 501.32L100.9 499.3L99.81 497.26L98.74 495.21L97.68 493.15L96.65 491.08L95.64 489L94.64 486.91L93.67 484.8L92.71 482.69L91.78 480.56L90.86 478.42L89.93 476.2L89.03 473.97L88.15 471.73L87.29 469.49L86.46 467.24L85.65 464.98L84.86 462.72L84.09 460.45L83.35 458.17L82.63 455.89L81.94 453.6L81.27 451.31L80.62 449.01L79.99 446.71L79.39 444.4L78.81 442.08L78.26 439.76L77.73 437.43L77.22 435.1L76.73 432.76L76.27 430.41L75.84 428.07L75.42 425.71L75.03 423.35L74.66 420.99L74.32 418.62L74 416.25L73.71 413.87L73.43 411.49L73.18 409.1L72.96 406.71L72.76 404.31L72.58 401.91L72.42 399.51L72.29 397.1L72.19 394.69L72.1 392.27L72.04 389.85L72.01 387.43L72 385L72.01 382.57L72.04 380.15L72.1 377.73L72.19 375.31L72.29 372.9L72.42 370.49L72.58 368.08L72.76 365.68L72.96 363.29L73.18 360.9L73.43 358.51L73.71 356.13L74 353.75L74.32 351.38L74.66 349.01L75.03 346.64L75.42 344.28L75.84 341.93L76.27 339.58L76.73 337.24L77.22 334.9L77.73 332.57L78.26 330.24L78.81 327.92L79.39 325.6L79.99 323.29L80.62 320.98L81.27 318.68L81.94 316.39L82.63 314.1L83.35 311.82L84.09 309.55L84.86 307.28L85.64 305.01L86.46 302.76L87.29 300.51L88.15 298.26L89.03 296.03L89.93 293.8L90.86 291.58L91.78 289.44L92.71 287.31L93.67 285.19L94.64 283.09L95.64 281L96.65 278.91L97.68 276.84L98.73 274.78L99.81 272.73L100.9 270.7L102.01 268.67L103.13 266.66L104.28 264.66L105.45 262.67L106.63 260.69L107.84 258.72L109.06 256.77L110.3 254.83L111.56 252.9L112.84 250.98L114.14 249.07L115.46 247.18L116.79 245.3L118.15 243.43L119.52 241.58L120.91 239.73L122.32 237.9L123.75 236.09L125.19 234.28L126.66 232.49L128.14 230.71L129.64 228.94L131.16 227.19L132.69 225.45L134.25 223.72L135.82 222.01L137.41 220.31L139.02 218.62L140.65 216.95L142.29 215.29L143.95 213.65L145.62 212.02L147.31 210.41L149.01 208.82L150.72 207.25L152.45 205.7L154.19 204.16L155.94 202.64L157.71 201.14L159.49 199.66L161.28 198.2L163.08 196.75L164.9 195.32L166.73 193.91L168.57 192.52L170.43 191.15L172.3 189.8L174.18 188.46L176.07 187.14L177.98 185.85L179.89 184.57L181.82 183.31L183.77 182.06L185.72 180.84L187.69 179.64L189.66 178.45L191.65 177.29L193.66 176.14L195.67 175.01L197.69 173.9L199.73 172.81L201.78 171.74L203.84 170.69L205.91 169.65L207.99 168.64L210.09 167.65L212.19 166.67L214.31 165.72L216.43 164.78L218.57 163.86L220.79 162.94L223.02 162.03L225.26 161.15L227.5 160.29L229.75 159.46L232.01 158.65L234.27 157.86L236.54 157.09L238.82 156.35L241.1 155.63L243.39 154.94L245.68 154.27L247.98 153.62L250.29 152.99L252.6 152.39L254.91 151.81L257.24 151.26L259.56 150.73L261.9 150.22L264.23 149.74L266.58 149.27L268.93 148.84L271.28 148.42L273.64 148.03L276 147.67L278.37 147.32L280.75 147L283.12 146.71L285.51 146.43L287.89 146.19L290.29 145.96L292.68 145.76L295.08 145.58L297.49 145.43L299.89 145.3L302.31 145.19L304.72 145.11L307.14 145.05L309.57 145.01L312 145L312.5 145L313.01 145ZM345.31 179.27L344.98 182.29L344.53 185.27L343.97 188.22L343.3 191.12L342.51 193.98L341.62 196.8L340.62 199.56L339.51 202.28L338.31 204.94L337 207.54L335.6 210.09L334.11 212.58L332.52 215L330.85 217.36L329.09 219.65L327.24 221.87L325.31 224.02L323.31 226.09L321.22 228.08L319.06 230L316.83 231.83L314.53 233.58L312.16 235.24L309.73 236.81L307.23 238.29L304.68 239.67L302.06 240.96L299.39 242.15L296.67 243.23L293.89 244.21L291.07 245.09L288.2 245.86L285.29 246.51L282.34 247.05L279.35 247.48L276.33 247.79L273.27 247.97L270.17 248.04L268.82 248.02L267.48 247.99L266.13 247.93L264.79 247.84L263.45 247.73L262.12 247.6L260.78 247.45L259.46 247.27L258.14 247.07L256.82 246.84L255.51 246.6L254.2 246.32L252.9 246.03L251.6 245.71L250.32 245.37L249.03 245.01L247.76 244.63L246.49 244.22L245.23 243.79L243.98 243.34L242.74 242.87L241.5 242.37L240.27 241.86L239.06 241.32L237.85 240.76L236.65 240.18L235.46 239.58L234.28 238.95L233.12 238.31L231.96 237.64L230.81 236.96L229.68 236.25L228.56 235.52L227.45 234.77L226.35 234.01L225.26 233.22L224.19 232.41L223.13 231.58L222.09 230.73L221.06 229.86L220.39 229.28L219.73 228.69L219.07 228.09L218.43 227.49L217.79 226.88L217.16 226.26L216.53 225.64L215.92 225.01L215.31 224.37L214.71 223.73L214.12 223.08L213.53 222.42L212.96 221.76L212.39 221.09L211.83 220.41L211.28 219.73L210.74 219.04L210.2 218.35L209.67 217.65L209.16 216.94L208.65 216.23L208.14 215.51L207.65 214.79L207.17 214.06L206.69 213.33L206.22 212.59L205.76 211.85L205.31 211.1L204.87 210.35L204.44 209.59L204.01 208.82L203.6 208.06L203.19 207.28L202.8 206.51L202.41 205.72L202.03 204.94L201.66 204.15L201.3 203.35L200.94 202.55L200.6 201.75L196.01 204.63L191.49 207.63L187.05 210.73L182.7 213.94L178.43 217.26L174.25 220.69L170.16 224.21L166.15 227.84L162.24 231.56L158.43 235.38L154.71 239.3L151.08 243.3L147.56 247.4L144.14 251.58L140.83 255.85L137.62 260.21L134.52 264.65L131.52 269.17L128.64 273.77L125.88 278.44L123.23 283.19L120.7 288.01L118.28 292.9L115.99 297.86L113.83 302.89L111.78 307.98L109.87 313.14L108.09 318.36L106.43 323.63L104.91 328.96L103.53 334.35L102.28 339.79L101.18 345.28L100.21 350.83L99.39 356.41L98.71 362.05L98.18 367.73L97.8 373.44L97.57 379.2L97.49 385L97.67 393.83L98.2 402.57L99.08 411.21L100.3 419.75L101.86 428.17L103.74 436.48L105.93 444.67L108.44 452.73L111.26 460.64L114.37 468.41L117.78 476.03L121.47 483.49L125.44 490.79L129.67 497.91L134.17 504.85L138.93 511.6L143.94 518.16L149.19 524.52L154.67 530.67L160.39 536.61L166.33 542.32L172.48 547.81L178.83 553.06L185.39 558.06L192.15 562.82L199.09 567.32L206.21 571.56L213.5 575.53L220.96 579.22L228.58 582.62L236.35 585.74L244.27 588.55L252.32 591.06L260.51 593.26L268.82 595.14L277.25 596.69L285.79 597.91L294.43 598.79L303.17 599.33L312 599.51L314.35 599.49L316.69 599.45L319.02 599.39L321.35 599.3L323.68 599.19L326 599.05L328.31 598.89L330.61 598.7L332.91 598.49L335.2 598.26L337.48 598L339.76 597.72L342.03 597.41L344.29 597.08L346.54 596.72L348.79 596.35L351.02 595.95L353.25 595.52L355.48 595.08L357.69 594.61L359.89 594.11L362.09 593.6L364.28 593.06L366.46 592.5L368.63 591.92L370.79 591.31L372.94 590.69L375.08 590.04L377.22 589.37L379.34 588.68L381.45 587.96L383.56 587.23L385.65 586.47L387.74 585.7L389.81 584.9L391.87 584.08L393.93 583.24L395.97 582.38L398 581.5L400.02 580.6L398.9 579.56L397.79 578.5L396.71 577.41L395.65 576.31L394.62 575.18L393.61 574.03L392.63 572.87L391.67 571.68L390.73 570.48L389.82 569.25L388.94 568.01L388.08 566.75L387.25 565.48L386.45 564.18L385.67 562.87L384.92 561.55L384.19 560.2L383.5 558.85L382.83 557.47L382.19 556.09L381.58 554.69L380.99 553.27L380.44 551.85L379.92 550.4L379.42 548.95L378.96 547.49L378.52 546.01L378.12 544.52L377.74 543.03L377.4 541.52L377.09 540L376.81 538.47L376.56 536.93L376.34 535.39L376.16 533.83L376.01 532.27L375.89 530.7L375.81 529.13L375.76 527.54L375.74 525.96L375.8 522.92L375.98 519.92L376.29 516.95L376.71 514.01L377.24 511.12L377.89 508.26L378.64 505.45L379.5 502.68L380.47 499.96L381.54 497.29L382.71 494.67L383.98 492.11L385.34 489.6L386.8 487.16L388.35 484.77L389.98 482.45L391.7 480.2L393.51 478.01L395.39 475.9L397.36 473.86L399.4 471.89L401.51 470.01L403.69 468.2L405.95 466.48L408.27 464.85L410.65 463.3L413.1 461.85L415.61 460.48L418.17 459.21L420.79 458.04L423.46 456.97L426.18 456.01L428.95 455.14L431.76 454.39L434.62 453.74L437.51 453.21L440.45 452.79L443.42 452.49L446.42 452.3L449.46 452.24L450.58 452.25L451.7 452.28L452.82 452.32L453.94 452.38L455.06 452.45L456.17 452.54L457.28 452.65L458.39 452.78L459.49 452.92L460.59 453.08L461.68 453.25L462.78 453.44L463.86 453.65L464.95 453.87L466.03 454.11L467.1 454.37L468.18 454.64L469.24 454.93L470.3 455.23L471.36 455.55L472.41 455.88L473.46 456.24L474.5 456.6L475.54 456.99L476.57 457.39L477.59 457.8L478.61 458.23L479.62 458.68L480.63 459.14L481.63 459.62L482.62 460.11L483.61 460.62L484.59 461.14L485.56 461.68L486.53 462.23L487.49 462.8L488.44 463.38L489.38 463.98L490.32 464.6L491.25 465.23L491.64 465.5L492.03 465.78L492.42 466.06L492.81 466.34L493.2 466.62L493.58 466.91L493.96 467.19L494.34 467.48L494.72 467.78L495.09 468.07L495.46 468.37L495.83 468.67L496.2 468.97L496.57 469.28L496.93 469.58L497.29 469.89L497.65 470.2L498.01 470.51L498.36 470.83L498.72 471.15L499.07 471.47L499.42 471.79L499.76 472.11L500.11 472.44L500.45 472.76L500.79 473.09L501.12 473.43L501.46 473.76L501.79 474.09L502.12 474.43L502.45 474.77L502.78 475.11L503.1 475.46L503.43 475.8L503.75 476.15L504.06 476.5L504.38 476.85L504.69 477.2L505 477.56L505.31 477.92L506.32 475.8L507.3 473.67L508.27 471.53L509.21 469.38L510.12 467.21L511.01 465.04L511.88 462.85L512.73 460.65L513.55 458.43L514.35 456.21L515.13 453.97L515.88 451.73L516.6 449.47L517.31 447.21L517.98 444.93L518.64 442.64L519.26 440.34L519.87 438.03L520.44 435.71L521 433.38L521.52 431.05L522.03 428.7L522.5 426.34L522.95 423.98L523.38 421.6L523.77 419.22L524.15 416.82L524.49 414.42L524.81 412.01L525.1 409.6L525.36 407.17L525.6 404.74L525.81 402.29L525.99 399.85L526.15 397.39L526.27 394.92L526.37 392.45L526.44 389.97L526.49 387.49L526.5 385L526.35 377.02L525.92 369.11L525.2 361.28L524.2 353.54L522.93 345.88L521.38 338.32L519.58 330.85L517.51 323.49L515.2 316.23L512.63 309.09L509.82 302.07L506.77 295.17L503.49 288.4L499.99 281.77L496.25 275.27L492.31 268.92L488.15 262.72L483.78 256.67L479.21 250.78L474.44 245.06L469.48 239.51L464.33 234.13L459.01 228.93L453.5 223.92L447.82 219.1L441.98 214.47L435.98 210.05L429.82 205.83L423.51 201.82L417.05 198.03L410.45 194.46L403.72 191.12L396.86 188L389.87 185.13L382.76 182.49L375.54 180.11L368.21 177.97L360.77 176.09L353.23 174.48L345.6 173.13L345.51 176.21L345.31 179.27ZM445.51 477.9L443.56 478.09L441.64 478.37L439.75 478.72L437.88 479.14L436.04 479.63L434.23 480.2L432.45 480.83L430.7 481.53L428.99 482.3L427.31 483.13L425.67 484.02L424.07 484.97L422.51 485.98L420.99 487.05L419.52 488.18L418.09 489.36L416.71 490.59L415.37 491.88L414.09 493.21L412.85 494.59L411.67 496.02L410.55 497.5L409.48 499.01L408.47 500.57L407.51 502.18L406.62 503.81L405.79 505.49L405.03 507.2L404.33 508.95L403.69 510.73L403.13 512.54L402.63 514.38L402.21 516.25L401.86 518.14L401.59 520.06L401.39 522.01L401.27 523.97L401.23 525.96L401.25 527.24L401.3 528.52L401.38 529.79L401.5 531.05L401.65 532.31L401.83 533.56L402.04 534.8L402.29 536.03L402.57 537.25L402.87 538.46L403.21 539.65L403.58 540.84L403.98 542.02L404.41 543.18L404.87 544.33L405.35 545.47L405.87 546.59L406.41 547.7L406.98 548.79L407.58 549.87L408.2 550.93L408.86 551.98L409.53 553.01L410.24 554.02L410.97 555.01L411.72 555.98L412.51 556.94L413.31 557.87L414.14 558.79L415 559.68L415.87 560.56L416.77 561.41L417.7 562.24L418.65 563.04L419.62 563.83L420.61 564.59L421.62 565.32L422.65 566.03L423.71 566.72L424.78 567.38L426.78 566.13L428.76 564.85L430.72 563.56L432.67 562.24L434.61 560.9L436.53 559.55L438.43 558.17L440.32 556.77L442.19 555.35L444.04 553.92L445.88 552.46L447.71 550.98L449.51 549.48L451.3 547.97L453.08 546.43L454.83 544.88L456.57 543.31L458.3 541.72L460 540.11L461.69 538.48L463.36 536.83L465.01 535.17L466.64 533.49L468.25 531.79L469.85 530.07L471.43 528.34L472.99 526.58L474.53 524.82L476.05 523.03L477.55 521.23L479.03 519.41L480.5 517.58L481.94 515.72L483.36 513.86L484.77 511.97L486.15 510.07L487.51 508.16L488.86 506.23L490.18 504.28L491.48 502.32L490.83 501.2L490.15 500.1L489.45 499.02L488.72 497.97L487.97 496.93L487.19 495.92L486.39 494.93L485.56 493.97L484.7 493.03L483.83 492.11L482.93 491.22L482.01 490.35L481.07 489.51L480.11 488.69L479.13 487.91L478.13 487.14L477.1 486.41L476.06 485.7L475 485.02L473.93 484.37L472.83 483.74L471.72 483.14L470.59 482.58L469.45 482.04L468.29 481.53L467.12 481.06L465.93 480.61L464.73 480.19L463.52 479.81L462.29 479.45L461.06 479.13L459.81 478.84L458.54 478.59L457.27 478.36L455.99 478.17L454.7 478.02L453.4 477.89L452.09 477.81L450.78 477.75L449.45 477.74L447.47 477.78L445.51 477.9ZM307.26 170.54L304.9 170.61L302.55 170.7L300.21 170.81L297.87 170.95L295.54 171.12L293.21 171.31L290.9 171.52L288.58 171.76L286.28 172.02L283.99 172.31L281.7 172.63L279.42 172.96L277.14 173.32L274.88 173.71L272.62 174.12L270.37 174.55L268.13 175L265.9 175.48L263.67 175.98L261.46 176.51L259.25 177.05L257.06 177.62L254.87 178.22L252.69 178.83L250.52 179.47L248.36 180.13L246.21 180.81L244.07 181.52L241.94 182.24L239.82 182.99L237.71 183.76L235.61 184.55L233.52 185.36L231.44 186.19L229.37 187.05L227.31 187.92L225.27 188.82L223.23 189.74L223.78 191.18L224.37 192.61L225 194.01L225.67 195.38L226.39 196.73L227.14 198.06L227.93 199.35L228.75 200.62L229.62 201.86L230.52 203.07L231.45 204.25L232.42 205.4L233.42 206.52L234.45 207.61L235.52 208.67L236.62 209.69L237.74 210.68L238.9 211.63L240.08 212.55L241.3 213.44L242.54 214.28L243.8 215.09L245.1 215.87L246.41 216.6L247.75 217.29L249.12 217.95L250.5 218.56L251.91 219.13L253.33 219.67L254.78 220.15L256.25 220.6L257.73 221L259.24 221.36L260.75 221.67L262.29 221.93L263.84 222.15L265.4 222.32L266.98 222.44L268.57 222.52L270.17 222.54L272.23 222.5L274.26 222.38L276.28 222.17L278.26 221.89L280.23 221.53L282.16 221.09L284.07 220.58L285.94 219.99L287.79 219.34L289.6 218.61L291.37 217.82L293.11 216.96L294.8 216.04L296.46 215.05L298.08 214L299.65 212.89L301.18 211.73L302.66 210.51L304.09 209.23L305.47 207.9L306.8 206.52L308.08 205.08L309.3 203.6L310.47 202.07L311.58 200.5L312.62 198.89L313.61 197.23L314.53 195.53L315.39 193.79L316.19 192.02L316.91 190.21L317.57 188.37L318.15 186.49L318.66 184.58L319.1 182.65L319.46 180.69L319.75 178.7L319.95 176.69L320.08 174.65L320.12 172.6L320.12 172.55L320.12 172.5L320.12 172.45L320.12 172.4L320.12 172.35L320.12 172.3L320.11 172.26L320.11 172.21L320.11 172.16L320.11 172.11L320.11 172.06L320.11 172.01L320.11 171.97L320.11 171.92L320.11 171.87L320.11 171.82L320.1 171.77L320.1 171.72L320.1 171.67L320.1 171.63L320.1 171.58L320.1 171.53L320.1 171.48L320.09 171.43L320.09 171.38L320.09 171.34L320.09 171.29L320.09 171.24L320.08 171.19L320.08 171.09L320.08 171.05L320.07 170.85L320.07 170.76L320.07 170.71L320.06 170.66L319.86 170.65L319.66 170.64L319.46 170.64L319.26 170.63L319.06 170.62L318.86 170.62L318.66 170.61L318.46 170.6L318.25 170.6L318.05 170.59L317.85 170.58L317.65 170.58L317.45 170.57L317.25 170.57L317.05 170.56L316.85 170.56L316.64 170.55L316.44 170.55L316.24 170.54L316.04 170.54L315.84 170.53L315.64 170.53L315.43 170.52L315.23 170.52L315.03 170.52L314.83 170.51L314.63 170.51L314.42 170.51L314.22 170.51L314.02 170.5L313.82 170.5L313.62 170.5L313.41 170.5L313.21 170.5L313.01 170.49L312.81 170.49L312.6 170.49L312.4 170.49L312.2 170.49L312 170.49L309.63 170.5L307.26 170.54Z" id="a8qVzDYcT2"></path><path d="M243.86 428.19L246.23 428.43L248.56 428.77L250.86 429.19L253.14 429.7L255.37 430.31L257.58 430.99L259.74 431.76L261.86 432.61L263.95 433.54L265.98 434.55L267.98 435.64L269.92 436.79L271.82 438.02L273.67 439.32L275.46 440.69L277.2 442.13L278.88 443.63L280.5 445.19L282.06 446.81L283.56 448.49L285 450.23L286.37 452.02L287.67 453.87L288.9 455.77L290.06 457.71L291.14 459.71L292.15 461.75L293.08 463.83L293.93 465.95L294.7 468.12L295.39 470.32L295.99 472.56L296.5 474.83L296.93 477.13L297.26 479.47L297.5 481.83L297.65 484.22L297.7 486.63L297.65 489.04L297.5 491.43L297.26 493.79L296.93 496.13L296.5 498.43L295.99 500.7L295.39 502.94L294.7 505.14L293.93 507.31L293.08 509.43L292.15 511.51L291.14 513.55L290.06 515.55L288.9 517.49L287.67 519.39L286.37 521.23L285 523.03L283.56 524.77L282.06 526.45L280.5 528.07L278.88 529.63L277.2 531.13L275.46 532.56L273.67 533.93L271.82 535.23L269.92 536.46L267.98 537.62L265.98 538.71L263.95 539.71L261.86 540.65L259.74 541.5L257.57 542.27L255.37 542.95L253.14 543.55L250.86 544.07L248.56 544.49L246.23 544.83L243.86 545.07L241.48 545.21L239.06 545.26L236.65 545.21L234.26 545.07L231.9 544.83L229.57 544.49L227.26 544.07L224.99 543.55L222.75 542.95L220.55 542.27L218.39 541.5L216.26 540.65L214.18 539.71L212.14 538.71L210.15 537.62L208.2 536.46L206.3 535.23L204.46 533.93L202.66 532.56L200.93 531.13L199.25 529.63L197.62 528.07L196.06 526.45L194.56 524.77L193.13 523.03L191.76 521.23L190.46 519.39L189.23 517.49L188.07 515.55L186.98 513.55L185.98 511.51L185.05 509.43L184.19 507.31L183.42 505.14L182.74 502.94L182.14 500.7L181.62 498.43L181.2 496.13L180.87 493.79L180.62 491.43L180.48 489.04L180.43 486.63L180.48 484.22L180.62 481.83L180.87 479.47L181.2 477.13L181.62 474.83L182.14 472.56L182.74 470.32L183.42 468.12L184.19 465.95L185.05 463.83L185.98 461.75L186.98 459.71L188.07 457.71L189.23 455.77L190.46 453.87L191.76 452.02L193.13 450.23L194.56 448.49L196.06 446.81L197.62 445.19L199.25 443.63L200.93 442.13L202.66 440.69L204.46 439.32L206.3 438.02L208.2 436.79L210.15 435.64L212.14 434.55L214.18 433.54L216.26 432.61L218.39 431.76L220.55 430.99L222.75 430.31L224.99 429.7L227.26 429.19L229.56 428.77L231.9 428.43L234.26 428.19L236.65 428.05L239.06 428L241.48 428.05L243.86 428.19ZM236.35 453.6L235.01 453.74L233.69 453.93L232.39 454.17L231.11 454.46L229.84 454.8L228.6 455.19L227.38 455.62L226.18 456.1L225 456.63L223.85 457.2L222.72 457.81L221.62 458.46L220.55 459.16L219.5 459.9L218.49 460.67L217.51 461.48L216.56 462.33L215.64 463.21L214.76 464.13L213.91 465.08L213.1 466.06L212.33 467.07L211.59 468.12L210.9 469.19L210.24 470.29L209.63 471.42L209.06 472.57L208.53 473.74L208.05 474.95L207.62 476.17L207.23 477.41L206.89 478.68L206.6 479.96L206.36 481.26L206.17 482.58L206.03 483.92L205.95 485.27L205.92 486.63L205.95 488L206.03 489.35L206.17 490.68L206.36 492L206.6 493.3L206.89 494.58L207.23 495.85L207.62 497.09L208.05 498.32L208.53 499.52L209.06 500.69L209.63 501.85L210.24 502.97L210.9 504.07L211.59 505.15L212.33 506.19L213.1 507.2L213.91 508.18L214.76 509.13L215.64 510.05L216.56 510.93L217.51 511.78L218.49 512.59L219.5 513.37L220.55 514.1L221.62 514.8L222.72 515.45L223.85 516.06L225 516.63L226.18 517.16L227.38 517.64L228.6 518.08L229.84 518.46L231.11 518.8L232.39 519.09L233.69 519.33L235.01 519.52L236.35 519.66L237.7 519.74L239.06 519.77L240.43 519.74L241.78 519.66L243.11 519.52L244.43 519.33L245.73 519.09L247.02 518.8L248.28 518.46L249.53 518.08L250.75 517.64L251.95 517.16L253.13 516.63L254.28 516.06L255.41 515.45L256.51 514.8L257.58 514.1L258.62 513.37L259.63 512.59L260.62 511.78L261.57 510.93L262.48 510.05L263.37 509.13L264.21 508.18L265.03 507.2L265.8 506.19L266.53 505.15L267.23 504.07L267.88 502.97L268.5 501.85L269.07 500.69L269.59 499.52L270.07 498.32L270.51 497.09L270.9 495.85L271.24 494.58L271.53 493.3L271.77 492L271.96 490.68L272.09 489.35L272.17 488L272.2 486.63L272.17 485.27L272.09 483.92L271.96 482.58L271.77 481.26L271.53 479.96L271.24 478.68L270.9 477.41L270.51 476.17L270.07 474.95L269.59 473.74L269.07 472.57L268.5 471.42L267.88 470.29L267.23 469.19L266.53 468.12L265.8 467.07L265.03 466.06L264.21 465.08L263.37 464.13L262.48 463.21L261.57 462.33L260.62 461.48L259.63 460.67L258.62 459.9L257.58 459.16L256.51 458.46L255.41 457.81L254.28 457.2L253.13 456.63L251.95 456.1L250.75 455.62L249.53 455.19L248.28 454.8L247.02 454.46L245.73 454.17L244.43 453.93L243.11 453.74L241.78 453.6L240.43 453.52L239.06 453.49L237.7 453.52L236.35 453.6Z" id="a1lm7iVmiK"></path><path d="M200.87 293.39L202.54 293.56L204.18 293.8L205.81 294.1L207.41 294.46L208.99 294.89L210.54 295.37L212.07 295.91L213.56 296.51L215.03 297.17L216.47 297.88L217.88 298.64L219.25 299.46L220.59 300.33L221.89 301.25L223.15 302.21L224.38 303.22L225.57 304.28L226.71 305.38L227.81 306.53L228.87 307.71L229.88 308.94L230.85 310.2L231.76 311.5L232.63 312.84L233.45 314.22L234.21 315.62L234.92 317.06L235.58 318.53L236.18 320.03L236.72 321.55L237.21 323.11L237.63 324.68L237.99 326.29L238.29 327.91L238.53 329.56L238.7 331.22L238.8 332.91L238.83 334.61L238.8 336.31L238.7 338L238.53 339.66L238.29 341.31L237.99 342.93L237.63 344.54L237.21 346.11L236.72 347.67L236.18 349.19L235.58 350.69L234.92 352.16L234.21 353.6L233.45 355L232.63 356.38L231.76 357.71L230.85 359.02L229.88 360.28L228.87 361.51L227.81 362.69L226.71 363.84L225.57 364.94L224.38 366L223.15 367.01L221.89 367.97L220.59 368.89L219.25 369.76L217.88 370.57L216.47 371.34L215.03 372.05L213.56 372.71L212.07 373.31L210.54 373.85L208.99 374.33L207.41 374.76L205.81 375.12L204.18 375.42L202.54 375.66L200.87 375.83L199.18 375.93L197.48 375.96L195.78 375.93L194.1 375.83L192.43 375.66L190.78 375.42L189.16 375.12L187.56 374.76L185.98 374.33L184.43 373.85L182.9 373.31L181.4 372.71L179.93 372.05L178.5 371.34L177.09 370.57L175.72 369.76L174.38 368.89L173.08 367.97L171.81 367.01L170.59 366L169.4 364.94L168.26 363.84L167.15 362.69L166.1 361.51L165.08 360.28L164.12 359.02L163.2 357.71L162.33 356.38L161.52 355L160.75 353.6L160.04 352.16L159.39 350.69L158.78 349.19L158.24 347.67L157.76 346.11L157.33 344.54L156.97 342.93L156.67 341.31L156.44 339.66L156.27 338L156.16 336.31L156.13 334.61L156.16 332.91L156.27 331.22L156.44 329.56L156.67 327.91L156.97 326.29L157.33 324.68L157.76 323.11L158.24 321.55L158.78 320.03L159.39 318.53L160.04 317.06L160.75 315.62L161.52 314.22L162.33 312.84L163.2 311.5L164.12 310.2L165.08 308.94L166.1 307.71L167.15 306.53L168.26 305.38L169.4 304.28L170.59 303.22L171.81 302.21L173.08 301.25L174.38 300.33L175.72 299.46L177.09 298.64L178.5 297.88L179.93 297.17L181.4 296.51L182.9 295.91L184.43 295.37L185.98 294.89L187.56 294.46L189.16 294.1L190.78 293.8L192.43 293.56L194.1 293.39L195.78 293.29L197.48 293.26L199.18 293.29L200.87 293.39ZM194.78 318.98L193.48 319.26L192.23 319.64L191.02 320.13L189.86 320.71L188.76 321.37L187.71 322.12L186.74 322.96L185.83 323.86L185 324.84L184.25 325.88L183.58 326.99L183 328.14L182.52 329.35L182.14 330.61L181.85 331.91L181.68 333.24L181.62 334.61L181.68 335.98L181.85 337.31L182.14 338.61L182.52 339.87L183 341.08L183.58 342.23L184.25 343.34L185 344.38L185.83 345.36L186.74 346.26L187.71 347.09L188.76 347.85L189.86 348.51L191.02 349.09L192.23 349.57L193.48 349.96L194.78 350.24L196.12 350.41L197.48 350.47L198.85 350.41L200.18 350.24L201.48 349.96L202.74 349.57L203.95 349.09L205.11 348.51L206.21 347.85L207.25 347.09L208.23 346.26L209.14 345.36L209.97 344.38L210.72 343.34L211.39 342.23L211.96 341.07L212.45 339.86L212.83 338.61L213.11 337.31L213.28 335.98L213.34 334.61L213.28 333.24L213.11 331.91L212.83 330.61L212.45 329.35L211.96 328.14L211.39 326.99L210.72 325.88L209.97 324.84L209.14 323.86L208.23 322.96L207.25 322.12L206.21 321.37L205.11 320.71L203.95 320.13L202.74 319.65L201.48 319.26L200.18 318.98L198.85 318.81L197.48 318.75L196.12 318.81L194.78 318.98Z" id="dbX5SP7uj"></path><path d="M406.1 270.24L408.69 270.5L411.26 270.87L413.79 271.34L416.28 271.9L418.74 272.56L421.15 273.31L423.53 274.16L425.86 275.09L428.15 276.11L430.39 277.22L432.57 278.41L434.71 279.68L436.79 281.03L438.82 282.46L440.79 283.96L442.7 285.54L444.54 287.18L446.32 288.9L448.04 290.68L449.68 292.53L451.26 294.43L452.76 296.4L454.19 298.43L455.54 300.51L456.81 302.65L458 304.84L459.11 307.08L460.13 309.36L461.07 311.69L461.91 314.07L462.66 316.49L463.32 318.94L463.89 321.44L464.35 323.97L464.72 326.53L464.98 329.12L465.14 331.74L465.2 334.39L465.14 337.04L464.98 339.66L464.72 342.26L464.35 344.82L463.89 347.35L463.32 349.84L462.66 352.3L461.91 354.72L461.07 357.09L460.13 359.42L459.11 361.71L458 363.95L456.81 366.14L455.54 368.27L454.19 370.36L452.76 372.38L451.26 374.35L449.68 376.26L448.04 378.1L446.32 379.89L444.54 381.6L442.7 383.25L440.79 384.82L438.82 386.32L436.79 387.75L434.71 389.1L432.57 390.37L430.39 391.56L428.15 392.67L425.86 393.69L423.53 394.63L421.15 395.47L418.74 396.23L416.28 396.89L413.79 397.45L411.26 397.92L408.69 398.28L406.1 398.55L403.48 398.71L400.83 398.76L398.18 398.71L395.56 398.55L392.96 398.28L390.4 397.92L387.87 397.45L385.38 396.89L382.92 396.23L380.51 395.47L378.13 394.63L375.8 393.69L373.51 392.67L371.27 391.56L369.08 390.37L366.95 389.1L364.87 387.75L362.84 386.32L360.87 384.82L358.96 383.25L357.12 381.6L355.34 379.89L353.62 378.1L351.97 376.26L350.4 374.35L348.9 372.38L347.47 370.36L346.12 368.27L344.85 366.14L343.66 363.95L342.55 361.71L341.53 359.42L340.59 357.09L339.75 354.72L338.99 352.3L338.33 349.84L337.77 347.35L337.3 344.82L336.94 342.26L336.67 339.66L336.51 337.04L336.46 334.39L336.51 331.74L336.67 329.12L336.94 326.53L337.3 323.97L337.77 321.44L338.33 318.94L338.99 316.49L339.75 314.07L340.59 311.69L341.53 309.36L342.55 307.08L343.66 304.84L344.85 302.65L346.12 300.51L347.47 298.43L348.9 296.4L350.4 294.43L351.97 292.53L353.62 290.68L355.34 288.9L357.12 287.18L358.96 285.54L360.87 283.96L362.84 282.46L364.87 281.03L366.95 279.68L369.09 278.41L371.27 277.22L373.51 276.11L375.8 275.09L378.13 274.16L380.51 273.31L382.92 272.56L385.38 271.9L387.87 271.34L390.4 270.87L392.97 270.5L395.56 270.24L398.18 270.08L400.83 270.03L403.48 270.08L406.1 270.24ZM397.65 295.65L396.08 295.81L394.53 296.03L393 296.31L391.5 296.65L390.01 297.05L388.56 297.5L387.12 298.01L385.71 298.58L384.33 299.2L382.98 299.86L381.66 300.58L380.37 301.35L379.11 302.17L377.89 303.03L376.7 303.94L375.54 304.89L374.43 305.88L373.35 306.92L372.32 307.99L371.32 309.11L370.37 310.26L369.47 311.45L368.6 312.67L367.79 313.93L367.02 315.22L366.3 316.54L365.63 317.89L365.01 319.28L364.45 320.68L363.94 322.12L363.49 323.58L363.09 325.06L362.75 326.57L362.46 328.1L362.24 329.64L362.08 331.21L361.99 332.79L361.95 334.39L361.99 335.99L362.08 337.58L362.24 339.14L362.46 340.69L362.75 342.22L363.09 343.72L363.49 345.21L363.94 346.67L364.45 348.1L365.01 349.51L365.63 350.89L366.3 352.24L367.02 353.56L367.79 354.85L368.6 356.11L369.47 357.34L370.37 358.53L371.32 359.68L372.32 360.79L373.35 361.87L374.43 362.9L375.54 363.9L376.7 364.85L377.89 365.76L379.11 366.62L380.37 367.43L381.66 368.2L382.98 368.92L384.33 369.59L385.71 370.21L387.12 370.77L388.56 371.28L390.01 371.74L391.5 372.13L393 372.48L394.53 372.76L396.08 372.98L397.65 373.14L399.23 373.23L400.83 373.27L402.43 373.23L404.01 373.14L405.58 372.98L407.13 372.76L408.65 372.48L410.16 372.13L411.64 371.74L413.1 371.28L414.54 370.77L415.95 370.21L417.33 369.59L418.68 368.92L420 368.2L421.29 367.43L422.55 366.62L423.77 365.76L424.96 364.85L426.11 363.9L427.23 362.9L428.31 361.87L429.34 360.79L430.34 359.68L431.29 358.53L432.19 357.34L433.06 356.11L433.87 354.85L434.64 353.56L435.36 352.24L436.03 350.89L436.64 349.51L437.21 348.1L437.72 346.67L438.17 345.21L438.57 343.72L438.91 342.22L439.19 340.69L439.42 339.14L439.58 337.58L439.67 335.99L439.7 334.39L439.67 332.79L439.58 331.21L439.42 329.64L439.19 328.1L438.91 326.57L438.57 325.06L438.17 323.58L437.72 322.12L437.21 320.68L436.64 319.28L436.03 317.89L435.36 316.54L434.64 315.22L433.87 313.93L433.06 312.67L432.19 311.45L431.29 310.26L430.34 309.11L429.34 307.99L428.31 306.92L427.23 305.88L426.11 304.89L424.96 303.94L423.77 303.03L422.55 302.17L421.29 301.35L420 300.58L418.68 299.86L417.33 299.2L415.95 298.58L414.54 298.01L413.1 297.5L411.64 297.05L410.16 296.65L408.65 296.31L407.13 296.03L405.58 295.81L404.01 295.65L402.43 295.55L400.83 295.52L399.23 295.55L397.65 295.65Z" id="aSJHv4QOV"></path><path d="M165.29 74.77L165.82 74.82L166.38 74.89L166.98 74.99L167.61 75.12L168.27 75.27L168.97 75.46L169.7 75.68L170.47 75.93L171.27 76.23L172.12 76.55L173.01 76.92L173.94 77.33L174.91 77.79L175.92 78.29L176.98 78.83L178.08 79.43L179.23 80.07L180.43 80.77L181.68 81.52L182.97 82.32L184.32 83.18L185.72 84.1L187.17 85.08L188.28 85.26L189.41 85.47L190.58 85.72L191.79 86L193.02 86.32L194.27 86.68L195.55 87.08L196.84 87.51L198.15 87.99L199.48 88.51L200.81 89.06L202.14 89.67L203.48 90.31L204.83 91L206.16 91.74L207.49 92.52L208.81 93.35L210.12 94.22L211.42 95.15L212.69 96.12L213.94 97.15L215.17 98.22L216.37 99.35L217.54 100.53L218.68 101.77L219.77 103.06L220.83 104.4L221.84 105.81L222.81 107.27L223.73 108.78L224.59 110.36L225.4 112L226.15 113.69L226.84 115.45L227.46 117.27L228.01 119.15L228.5 121.1L228.9 123.11L229.24 125.19L229.49 127.34L229.63 129.47L229.66 131.56L229.58 133.6L229.39 135.6L229.11 137.56L228.72 139.48L228.24 141.35L227.68 143.18L227.03 144.97L226.31 146.71L225.51 148.41L224.65 150.07L223.73 151.68L222.74 153.25L221.71 154.78L220.63 156.27L219.5 157.71L218.34 159.1L217.14 160.46L215.91 161.77L214.67 163.04L213.4 164.27L212.12 165.45L210.83 166.59L209.53 167.68L208.24 168.73L206.96 169.74L205.68 170.71L204.42 171.63L203.18 172.51L201.97 173.35L200.79 174.14L199.64 174.89L198.53 175.6L197.47 176.26L196.46 176.88L195.5 177.45L194.6 177.99L193.77 178.48L193 178.92L192.24 179.37L191.4 179.85L190.49 180.37L189.52 180.92L188.48 181.5L187.38 182.1L186.22 182.71L185.01 183.34L183.73 183.98L182.41 184.63L181.03 185.27L179.61 185.91L178.14 186.55L176.63 187.17L175.08 187.78L173.49 188.36L171.86 188.93L170.2 189.46L168.51 189.96L166.79 190.42L165.05 190.84L163.28 191.21L161.49 191.54L159.68 191.81L157.85 192.02L156.01 192.17L154.16 192.25L152.3 192.26L150.44 192.2L148.56 192.05L146.69 191.82L144.82 191.5L142.95 191.09L141.08 190.59L139.23 189.98L137.38 189.27L135.54 188.44L133.72 187.51L131.92 186.45L130.14 185.27L128.39 184L126.75 182.69L125.2 181.34L123.74 179.96L122.37 178.55L121.1 177.12L119.91 175.65L118.8 174.16L117.77 172.66L116.83 171.13L115.96 169.58L115.16 168.02L114.44 166.45L113.79 164.87L113.21 163.28L112.69 161.68L112.24 160.08L111.85 158.48L111.52 156.88L111.24 155.29L111.02 153.7L110.85 152.12L110.73 150.55L110.66 148.99L110.64 147.45L110.66 145.92L110.71 144.42L110.81 142.93L110.95 141.47L111.12 140.04L111.32 138.63L111.55 137.26L111.81 135.92L112.09 134.61L112.4 133.34L112.72 132.11L113.07 130.93L113.43 129.79L113.81 128.69L114.19 127.65L114.05 125.91L113.94 124.25L113.86 122.66L113.8 121.15L113.76 119.7L113.74 118.32L113.75 117.01L113.77 115.76L113.82 114.58L113.88 113.46L113.96 112.39L114.06 111.38L114.17 110.43L114.3 109.53L114.44 108.69L114.6 107.89L114.76 107.15L114.94 106.45L115.13 105.79L115.32 105.18L115.53 104.62L115.74 104.09L115.96 103.6L116.18 103.14L116.41 102.72L116.64 102.34L116.88 101.98L117.11 101.66L117.35 101.36L117.58 101.09L117.82 100.84L118.05 100.62L118.28 100.42L118.5 100.23L118.72 100.07L118.93 99.92L119.14 99.78L119.34 99.66L119.53 99.54L119.7 99.44L119.79 99.39L119.82 99.37L119.85 99.35L119.88 99.34L119.91 99.32L119.94 99.3L119.97 99.29L120 99.27L120.03 99.25L120.06 99.24L120.09 99.22L120.13 99.2L120.16 99.19L120.19 99.17L120.22 99.16L120.25 99.14L120.28 99.13L120.31 99.11L120.34 99.1L120.38 99.08L120.41 99.07L120.44 99.05L120.47 99.04L120.5 99.02L120.53 99.01L120.57 98.99L120.6 98.98L120.63 98.96L120.66 98.95L120.69 98.94L120.73 98.92L120.76 98.91L120.79 98.9L120.82 98.88L120.86 98.87L120.89 98.86L120.92 98.84L120.95 98.83L120.99 98.82L121.02 98.81L121.33 98.69L121.66 98.59L122 98.5L122.35 98.41L122.71 98.34L123.09 98.28L123.47 98.23L123.87 98.19L124.28 98.15L124.69 98.13L125.12 98.12L125.56 98.12L126.02 98.13L126.48 98.15L126.95 98.18L127.44 98.21L127.93 98.26L128.44 98.32L128.96 98.39L129.49 98.47L130.03 98.56L130.58 98.66L131.14 98.77L131.72 98.89L132.3 99.02L132.9 99.16L133.5 99.31L134.12 99.47L134.75 99.64L135.39 99.82L136.04 100.01L136.7 100.21L137.37 100.42L138.05 100.64L138.75 100.88L139.45 101.12L140.17 101.37L140.89 101.63L141.63 101.9L142.38 102.18L151.13 97.08L151.25 96.29L151.38 95.51L151.51 94.75L151.65 94.01L151.78 93.27L151.92 92.56L152.07 91.85L152.22 91.17L152.37 90.49L152.52 89.83L152.68 89.19L152.84 88.56L153 87.94L153.17 87.34L153.34 86.75L153.52 86.18L153.7 85.62L153.88 85.08L154.06 84.55L154.25 84.03L154.44 83.53L154.64 83.05L154.84 82.58L155.04 82.12L155.24 81.68L155.45 81.25L155.66 80.84L155.88 80.44L156.09 80.06L156.32 79.69L156.54 79.34L156.77 79L157 78.67L157.23 78.37L157.47 78.07L157.71 77.79L157.96 77.53L158.21 77.28L158.46 77.04L158.71 76.82L158.74 76.8L158.77 76.78L158.79 76.76L158.82 76.73L158.85 76.71L158.87 76.69L158.9 76.67L158.93 76.65L158.96 76.63L158.99 76.61L159.01 76.58L159.04 76.56L159.07 76.54L159.1 76.52L159.13 76.5L159.15 76.48L159.18 76.46L159.21 76.44L159.24 76.42L159.27 76.4L159.3 76.38L159.33 76.36L159.35 76.34L159.38 76.32L159.41 76.3L159.44 76.28L159.47 76.26L159.5 76.24L159.53 76.22L159.56 76.2L159.59 76.18L159.62 76.16L159.65 76.15L159.68 76.13L159.71 76.11L159.74 76.09L159.77 76.07L159.8 76.05L159.83 76.04L159.86 76.02L160.04 75.91L160.23 75.81L160.43 75.7L160.65 75.58L160.88 75.47L161.13 75.36L161.4 75.25L161.69 75.15L161.99 75.06L162.32 74.97L162.67 74.9L163.04 74.84L163.44 74.79L163.86 74.76L164.31 74.74L164.78 74.75L165.29 74.77ZM164.03 81.72L163.66 81.82L163.33 81.97L163.11 82.12L162.85 82.37L162.59 82.66L162.33 83L162.09 83.38L161.84 83.8L161.61 84.25L161.38 84.74L161.15 85.26L160.94 85.8L160.72 86.37L160.52 86.97L160.32 87.58L160.13 88.21L159.94 88.85L159.76 89.5L159.59 90.17L159.42 90.83L159.26 91.5L159.11 92.17L158.96 92.84L158.82 93.5L158.69 94.16L158.56 94.8L158.44 95.43L158.33 96.04L158.22 96.63L158.12 97.2L158.03 97.75L157.94 98.26L157.87 98.75L157.8 99.2L157.73 99.62L157.68 100L157.63 100.34L157.59 100.63L157.55 100.88L157.53 101.07L157.51 101.22L157.5 101.31L157.49 101.34L142.96 109.81L142.93 109.8L142.85 109.77L142.71 109.71L142.53 109.64L142.3 109.55L142.02 109.44L141.7 109.32L141.35 109.18L140.95 109.03L140.52 108.87L140.06 108.69L139.57 108.51L139.05 108.32L138.5 108.13L137.94 107.93L137.35 107.73L136.74 107.52L136.12 107.32L135.49 107.11L134.84 106.91L134.19 106.71L133.53 106.51L132.87 106.32L132.2 106.14L131.54 105.96L130.89 105.8L130.23 105.64L129.59 105.5L128.96 105.37L128.34 105.26L127.74 105.16L127.16 105.08L126.6 105.02L126.06 104.98L125.55 104.96L125.07 104.97L124.61 105L124.19 105.05L123.81 105.13L123.46 105.24L123.22 105.35L122.93 105.57L122.66 105.84L122.41 106.18L122.19 106.58L121.98 107.03L121.79 107.54L121.62 108.09L121.46 108.69L121.33 109.32L121.21 109.99L121.1 110.7L121.01 111.43L120.93 112.19L120.86 112.98L120.81 113.77L120.77 114.59L120.74 115.41L120.72 116.24L120.7 117.08L120.7 117.91L120.7 118.74L120.71 119.56L120.73 120.37L120.75 121.16L120.78 121.93L120.81 122.68L120.84 123.41L120.88 124.1L120.91 124.76L120.95 125.38L120.99 125.96L121.03 126.5L121.06 126.98L121.09 127.41L121.12 127.79L121.15 128.11L121.17 128.36L121.19 128.55L121.2 128.66L121.2 128.7L121.18 128.76L121.1 128.93L120.99 129.22L120.84 129.62L120.65 130.11L120.44 130.71L120.21 131.4L119.96 132.19L119.7 133.06L119.43 134.01L119.16 135.04L118.9 136.14L118.64 137.31L118.4 138.55L118.18 139.85L117.98 141.2L117.82 142.61L117.69 144.06L117.59 145.56L117.55 147.1L117.55 148.68L117.61 150.28L117.73 151.91L117.92 153.57L118.18 155.24L118.51 156.93L118.93 158.62L119.43 160.32L120.02 162.03L120.71 163.73L121.51 165.42L122.41 167.1L123.42 168.77L124.55 170.41L125.8 172.04L127.18 173.63L128.7 175.19L130.35 176.71L132.14 178.2L134.09 179.63L135.56 180.6L137.04 181.47L138.55 182.24L140.08 182.92L141.62 183.5L143.17 184L144.73 184.42L146.3 184.75L147.88 185.01L149.47 185.2L151.05 185.31L152.64 185.36L154.22 185.34L155.81 185.26L157.39 185.13L158.96 184.94L160.52 184.7L162.07 184.42L163.61 184.09L165.14 183.72L166.64 183.31L168.13 182.87L169.6 182.4L171.05 181.9L172.47 181.38L173.87 180.83L175.23 180.28L176.57 179.7L177.87 179.12L179.14 178.53L180.38 177.93L181.57 177.34L182.73 176.75L183.84 176.16L184.91 175.59L185.94 175.03L186.91 174.48L187.84 173.95L188.71 173.45L189.53 172.97L190.35 172.5L191.22 171.98L192.14 171.44L193.09 170.85L194.08 170.24L195.11 169.59L196.17 168.91L197.25 168.2L198.36 167.45L199.48 166.67L200.62 165.85L201.77 165L202.93 164.12L204.09 163.21L205.25 162.26L206.4 161.28L207.55 160.27L208.68 159.22L209.8 158.14L210.9 157.03L211.97 155.88L213.01 154.71L214.03 153.5L215 152.25L215.94 150.98L216.84 149.67L217.68 148.33L218.48 146.96L219.22 145.55L219.9 144.12L220.52 142.65L221.07 141.15L221.56 139.61L221.96 138.05L222.29 136.45L222.54 134.82L222.7 133.16L222.78 131.47L222.75 129.75L222.63 127.99L222.34 125.59L221.93 123.3L221.42 121.11L220.81 119.03L220.1 117.04L219.31 115.15L218.43 113.36L217.48 111.66L216.46 110.05L215.37 108.52L214.23 107.08L213.04 105.73L211.81 104.45L210.54 103.26L209.23 102.13L207.91 101.09L206.56 100.11L205.2 99.2L203.83 98.36L202.46 97.58L201.1 96.86L199.75 96.2L198.42 95.6L197.11 95.05L195.84 94.56L194.6 94.11L193.4 93.71L192.26 93.36L191.16 93.04L190.14 92.77L189.18 92.54L188.29 92.33L187.49 92.17L186.77 92.03L186.15 91.92L185.62 91.83L185.2 91.77L184.89 91.73L184.71 91.71L184.64 91.7L184.61 91.68L184.52 91.61L184.36 91.51L184.15 91.36L183.89 91.19L183.58 90.97L183.22 90.73L182.81 90.46L182.36 90.17L181.88 89.85L181.36 89.51L180.8 89.15L180.21 88.78L179.6 88.4L178.96 88L178.3 87.6L177.62 87.19L176.93 86.77L176.22 86.36L175.5 85.95L174.77 85.54L174.04 85.14L173.3 84.75L172.57 84.38L171.84 84.01L171.12 83.67L170.41 83.34L169.71 83.03L169.03 82.75L168.36 82.49L167.71 82.27L167.09 82.07L166.5 81.92L165.93 81.79L165.4 81.71L164.91 81.67L164.45 81.67L164.03 81.72Z" id="a5bc4DmrzX"></path><path d="M159 156.25L158 154.18L135.35 165.11L136.35 167.18L159 156.25Z" id="iJq2dygHY"></path><path d="M142.34 177.83L162.16 163.25L160.8 161.4L140.98 175.99L142.34 177.83Z" id="a1BqgRXAqu"></path><path d="M210.67 123.83L209.37 121.94L188.7 136.28L190.01 138.16L210.67 123.83Z" id="a3BqKPj1c7"></path><path d="M217 134.29L216.06 132.2L193.61 142.27L194.55 144.36L217 134.29Z" id="b2qBlENPkq"></path><path d="M188.97 152.38C187.41 153.29 186.12 153.66 185.03 153.72C183.41 153.81 182.13 153.28 180.91 152.35C179.72 151.41 178.69 150.05 177.92 148.73C177.44 147.91 177.09 147.14 176.81 146.49C176.95 145.94 178.12 141.52 178.26 140.96C178.53 139.95 178.16 138.87 177.32 138.23C176.48 137.59 175.35 137.52 174.44 138.05C173.65 138.51 167.36 142.18 166.57 142.64C165.64 143.18 165.14 144.24 165.32 145.3C165.48 146.37 166.29 147.21 167.35 147.44C167.86 147.54 171.97 148.41 172.48 148.52C172.96 149.11 173.57 149.94 174.15 150.94C175.19 152.69 176.02 154.88 175.9 156.79C175.84 157.76 175.59 158.66 174.99 159.58C174.4 160.49 173.44 161.44 171.89 162.34C170.72 163.03 169.22 163.68 167.32 164.25C166.28 164.56 165.7 165.65 166.01 166.68C166.32 167.72 167.41 168.3 168.45 167.99C170.58 167.34 172.37 166.58 173.86 165.71C175.83 164.56 177.29 163.21 178.27 161.7C179.42 159.94 179.83 158.03 179.8 156.24C180.02 156.37 180.2 156.52 180.43 156.64C181.83 157.33 183.48 157.73 185.27 157.62C187.06 157.51 188.96 156.91 190.93 155.76C192.42 154.89 193.96 153.71 195.58 152.16C196.36 151.42 196.38 150.18 195.64 149.41C194.9 148.63 193.66 148.6 192.88 149.34C191.45 150.72 190.14 151.7 188.97 152.38Z" id="ajy5lZ2YF"></path><path d="M127.91 123.68L134.47 117.86L126.55 114.51L127.91 123.68Z" id="aEp6LEjQ3"></path><path d="M168.67 97.91L176.97 95.06L169.66 89.37L168.67 97.91Z" id="c1tAsrxiEo"></path><path d="M150.09 145.95C153 144.25 153.99 140.5 152.29 137.58C150.58 134.66 146.84 133.67 143.92 135.38C141 137.08 140.01 140.83 141.71 143.75C143.42 146.67 147.17 147.65 150.09 145.95Z" id="d443Ih2OlQ"></path><path d="M187.64 116.96C185.94 114.04 182.19 113.06 179.27 114.76C176.35 116.46 175.36 120.21 177.07 123.13C178.77 126.05 182.52 127.04 185.44 125.33C188.36 123.63 189.34 119.88 187.64 116.96Z" id="dpj5F89tL"></path><path d="M497.32 58.84L497.61 58.86L497.9 58.89L498.18 58.93L498.47 58.97L498.75 59.03L499.03 59.09L499.3 59.16L499.58 59.23L499.85 59.32L500.12 59.41L500.39 59.51L500.66 59.61L500.92 59.73L501.18 59.85L501.44 59.98L501.69 60.12L501.94 60.26L502.05 60.33L502.16 60.4L502.27 60.47L502.39 60.54L502.5 60.62L502.61 60.7L502.73 60.78L502.85 60.87L502.97 60.96L503.09 61.06L503.21 61.15L503.33 61.26L503.45 61.36L503.57 61.47L503.69 61.58L503.81 61.7L503.93 61.82L504.05 61.94L504.17 62.07L504.29 62.2L504.41 62.34L504.53 62.48L504.64 62.62L504.76 62.77L504.88 62.92L504.99 63.08L505.1 63.24L505.21 63.4L505.32 63.57L505.43 63.75L505.53 63.92L505.64 64.11L505.74 64.3L505.84 64.49L505.94 64.69L506.03 64.89L506.12 65.1L506.21 65.31L506.3 65.53L506.38 65.75L506.59 66.35L506.78 66.98L506.97 67.62L507.14 68.28L507.29 68.96L507.44 69.65L507.58 70.36L507.7 71.08L507.81 71.82L507.92 72.57L508.01 73.33L508.09 74.11L508.16 74.89L508.22 75.69L508.28 76.49L508.32 77.31L508.35 78.14L508.38 78.97L508.4 79.81L508.41 80.65L508.41 81.51L508.4 82.36L508.39 83.23L508.37 84.09L508.34 84.96L508.3 85.83L508.26 86.71L508.22 87.58L508.16 88.46L508.1 89.33L508.04 90.21L507.97 91.08L507.9 91.95L507.82 92.82L507.74 93.69L507.65 94.55L507.56 95.4L507.47 96.25L507.37 97.1L507.27 97.94L507.31 97.96L507.33 97.97L507.35 97.98L507.37 97.99L507.39 98L507.41 98.01L507.43 98.02L507.45 98.04L507.47 98.05L507.49 98.06L507.51 98.07L507.53 98.08L507.55 98.09L507.57 98.1L507.59 98.11L507.63 98.14L507.67 98.16L507.69 98.17L507.73 98.19L507.77 98.22L507.79 98.23L507.82 98.25L507.84 98.26L507.88 98.28L507.9 98.3L507.94 98.32L507.98 98.34L508.02 98.36L508.06 98.39L508.08 98.4L508.12 98.42L508.14 98.43L508.18 98.46L508.21 98.48L508.23 98.49L508.27 98.52L508.29 98.53L508.33 98.55L508.37 98.57L508.41 98.6L508.43 98.61L508.44 98.62L508.48 98.64L508.52 98.67L508.54 98.68L508.56 98.69L508.58 98.7L508.6 98.72L508.62 98.73L508.64 98.74L508.65 98.75L508.67 98.76L508.69 98.78L508.71 98.79L508.73 98.8L508.75 98.81L508.79 98.84L508.83 98.86L509.59 98.42L510.36 97.97L511.13 97.53L511.91 97.08L512.7 96.64L513.5 96.2L514.3 95.76L515.1 95.33L515.91 94.89L516.72 94.46L517.54 94.04L518.35 93.62L519.17 93.2L519.99 92.79L520.81 92.39L521.64 91.99L522.46 91.6L523.28 91.22L524.1 90.85L524.91 90.48L525.73 90.13L526.54 89.78L527.35 89.45L528.16 89.12L528.96 88.81L529.75 88.51L530.54 88.22L531.33 87.94L532.11 87.68L532.88 87.43L533.64 87.2L534.4 86.98L535.14 86.77L535.88 86.58L536.61 86.41L537.32 86.26L538.03 86.12L538.73 86L539.41 85.9L540.08 85.82L540.33 85.79L540.57 85.77L540.81 85.76L541.05 85.74L541.29 85.74L541.52 85.74L541.75 85.74L541.97 85.74L542.19 85.75L542.41 85.76L542.62 85.78L542.83 85.8L543.04 85.82L543.24 85.85L543.44 85.88L543.63 85.91L543.82 85.95L544.01 85.99L544.2 86.03L544.38 86.07L544.55 86.12L544.73 86.16L544.9 86.21L545.07 86.26L545.23 86.32L545.39 86.37L545.54 86.43L545.7 86.48L545.84 86.54L545.99 86.6L546.13 86.66L546.27 86.73L546.4 86.79L546.53 86.85L546.66 86.91L546.78 86.98L546.9 87.04L547.02 87.11L547.13 87.17L547.24 87.23L547.49 87.39L547.73 87.54L547.96 87.71L548.19 87.88L548.41 88.05L548.63 88.23L548.84 88.42L549.04 88.61L549.24 88.8L549.43 89.01L549.62 89.21L549.8 89.43L549.97 89.64L550.13 89.86L550.29 90.09L550.44 90.32L550.59 90.56L550.73 90.8L550.86 91.04L550.99 91.29L551.11 91.55L551.22 91.8L551.32 92.07L551.42 92.33L551.51 92.6L551.59 92.87L551.67 93.15L551.74 93.43L551.8 93.72L551.86 94L551.91 94.3L551.95 94.59L551.98 94.89L552.01 95.19L552.03 95.49L552.04 95.8L552.04 96.11L552.04 96.42L552.03 96.74L552.01 97.06L551.95 97.66L551.87 98.27L551.76 98.9L551.63 99.53L551.47 100.18L551.28 100.83L551.07 101.5L550.84 102.17L550.58 102.84L550.3 103.53L549.99 104.21L549.66 104.9L549.31 105.59L548.93 106.29L548.53 106.98L548.11 107.67L547.67 108.37L547.2 109.05L546.72 109.74L546.21 110.42L545.68 111.09L545.14 111.76L544.57 112.42L543.98 113.08L543.38 113.72L542.75 114.35L542.11 114.98L541.45 115.59L540.77 116.18L540.07 116.76L539.36 117.33L538.62 117.88L537.87 118.42L537.11 118.93L536.33 119.43L535.53 119.9L534.72 120.36L533.89 120.79L533.05 121.2L532.19 121.59L531.97 121.68L531.76 121.78L531.53 121.87L531.31 121.96L531.09 122.05L530.86 122.14L530.63 122.23L530.4 122.32L530.17 122.41L529.93 122.5L529.69 122.59L529.46 122.68L529.21 122.77L528.97 122.86L528.73 122.94L528.48 123.03L528.23 123.12L527.98 123.2L527.73 123.29L527.47 123.37L527.22 123.46L526.96 123.54L526.7 123.63L526.44 123.71L526.17 123.79L525.91 123.88L525.64 123.96L525.37 124.04L525.1 124.12L524.83 124.2L524.55 124.28L524.27 124.36L523.99 124.44L523.71 124.52L523.43 124.6L523.15 124.68L522.86 124.75L522.57 124.83L522.28 124.91L521.99 124.98L521.97 125.3L521.96 125.61L521.94 125.93L521.91 126.25L521.89 126.57L521.86 126.89L521.83 127.21L521.79 127.53L521.76 127.85L521.72 128.17L521.68 128.49L521.63 128.81L521.58 129.14L521.53 129.46L521.48 129.78L521.43 130.11L521.37 130.43L521.31 130.76L521.25 131.08L521.18 131.41L521.11 131.74L521.04 132.06L520.97 132.39L520.89 132.72L520.81 133.05L520.73 133.38L520.64 133.7L520.56 134.03L520.47 134.36L520.38 134.69L520.28 135.02L520.18 135.35L520.08 135.68L519.98 136.01L519.87 136.34L519.77 136.67L519.66 137L519.54 137.33L519.43 137.66L519.31 137.99L519.17 138.37L519.04 138.75L518.91 139.12L518.78 139.49L518.66 139.85L518.54 140.21L518.42 140.57L518.3 140.91L518.19 141.26L518.09 141.6L517.98 141.93L517.88 142.26L517.78 142.59L517.68 142.91L517.59 143.23L517.5 143.54L517.41 143.86L517.32 144.16L517.24 144.47L517.15 144.77L517.07 145.07L516.99 145.37L516.91 145.66L516.84 145.95L516.76 146.24L516.69 146.52L516.62 146.81L516.55 147.09L516.48 147.37L516.41 147.64L516.35 147.92L516.28 148.19L516.22 148.47L516.15 148.74L516.09 149.01L516.03 149.28L515.96 149.55L515.9 149.81L515.84 150.08L515.78 150.35L515.76 150.43L515.74 150.51L515.72 150.59L515.71 150.67L515.69 150.75L515.67 150.83L515.65 150.91L515.63 150.99L515.61 151.07L515.59 151.15L515.57 151.23L515.56 151.31L515.54 151.39L515.52 151.47L515.5 151.55L515.48 151.63L515.46 151.71L515.44 151.79L515.42 151.87L515.41 151.95L515.39 152.03L515.37 152.12L515.35 152.2L515.33 152.28L515.31 152.36L515.29 152.44L515.27 152.52L515.25 152.6L515.23 152.68L515.21 152.76L515.2 152.84L515.18 152.92L515.16 153L515.14 153.08L515.12 153.16L515.1 153.24L515.08 153.32L515.06 153.41L515.04 153.49L515.02 153.57L515 154.32L514.96 155.1L514.91 155.9L514.85 156.73L514.77 157.57L514.69 158.44L514.58 159.33L514.47 160.24L514.34 161.16L514.2 162.1L514.05 163.04L513.88 164L513.7 164.97L513.51 165.95L513.3 166.93L513.08 167.92L512.85 168.91L512.6 169.91L512.34 170.9L512.07 171.89L511.78 172.88L511.48 173.86L511.16 174.84L510.83 175.81L510.49 176.77L510.13 177.72L509.76 178.66L509.38 179.58L508.98 180.49L508.57 181.38L508.14 182.25L507.7 183.1L507.25 183.93L506.78 184.74L506.29 185.52L505.8 186.27L505.28 187L504.76 187.7L504.22 188.36L503.66 188.99L502.88 189.83L502.07 190.65L501.23 191.47L500.35 192.27L499.44 193.06L498.5 193.83L497.53 194.57L496.53 195.3L495.49 196L494.42 196.67L493.31 197.31L492.17 197.92L491 198.5L489.79 199.04L488.54 199.53L487.27 199.99L485.95 200.4L484.6 200.76L483.22 201.08L481.79 201.34L480.33 201.55L478.84 201.7L477.3 201.8L475.73 201.83L474.12 201.8L472.47 201.7L470.79 201.53L469.06 201.29L467.3 200.98L465.5 200.59L463.65 200.13L461.77 199.58L459.85 198.95L457.88 198.24L455.88 197.43L453.83 196.54L451.75 195.55L449.62 194.47L447.45 193.29L445.23 192.01L443.06 190.68L441 189.34L439.04 187.99L437.2 186.64L435.47 185.28L433.84 183.92L432.31 182.55L430.88 181.19L429.55 179.82L428.31 178.45L427.16 177.08L426.11 175.72L425.14 174.35L424.26 172.99L423.46 171.63L422.73 170.27L422.09 168.92L421.52 167.58L421.03 166.24L420.6 164.91L420.24 163.58L419.95 162.27L419.72 160.96L419.55 159.67L419.44 158.38L419.38 157.11L419.38 155.85L419.43 154.61L419.52 153.38L419.66 152.16L419.85 150.96L420.07 149.77L420.34 148.61L420.64 147.46L420.97 146.33L421.34 145.22L421.73 144.13L422.15 143.06L422.59 142.02L423.06 141L423.43 140.25L423.83 139.51L424.27 138.76L424.75 138.02L425.26 137.27L425.8 136.52L426.37 135.78L426.97 135.03L427.6 134.29L428.25 133.56L428.93 132.82L429.63 132.1L430.35 131.37L431.09 130.66L431.85 129.94L432.62 129.24L433.41 128.54L434.21 127.86L435.03 127.18L435.85 126.51L436.69 125.85L437.53 125.2L438.37 124.57L439.22 123.94L440.08 123.33L440.93 122.73L441.79 122.15L442.64 121.58L443.49 121.03L444.33 120.49L445.17 119.97L446 119.47L446.82 118.98L447.63 118.51L448.42 118.07L449.2 117.64L449.97 117.23L450.72 116.84L451.45 116.48L452.16 116.14L452.23 116.09L452.3 116.03L452.37 115.98L452.44 115.93L452.51 115.88L452.57 115.83L452.64 115.78L452.71 115.73L452.78 115.67L452.85 115.62L452.92 115.57L452.99 115.52L453.06 115.47L453.13 115.42L453.2 115.37L453.26 115.32L453.33 115.27L453.4 115.22L453.47 115.17L453.54 115.12L453.61 115.07L453.68 115.01L453.75 114.96L453.82 114.91L453.88 114.86L453.95 114.81L454.09 114.71L454.16 114.66L454.51 114.41L454.57 114.36L454.64 114.31L454.71 114.26L454.78 114.21L454.85 114.16L454.92 114.11L455.15 113.94L455.38 113.77L455.61 113.61L455.84 113.44L456.07 113.27L456.3 113.1L456.53 112.93L456.77 112.76L457 112.58L457.24 112.41L457.47 112.23L457.71 112.05L457.95 111.87L458.19 111.69L458.44 111.51L458.68 111.32L458.93 111.13L459.17 110.94L459.42 110.74L459.68 110.55L459.93 110.35L460.19 110.14L460.44 109.94L460.7 109.73L460.97 109.51L461.23 109.3L461.5 109.08L461.77 108.85L462.04 108.62L462.32 108.39L462.6 108.15L462.88 107.91L463.17 107.67L463.45 107.42L463.75 107.16L464.04 106.9L464.34 106.63L464.64 106.36L464.94 106.09L465.25 105.8L465.52 105.56L465.79 105.32L466.05 105.08L466.32 104.85L466.59 104.61L466.86 104.38L467.14 104.15L467.41 103.93L467.68 103.7L467.96 103.48L468.24 103.26L468.51 103.04L468.79 102.83L469.07 102.62L469.35 102.41L469.63 102.2L469.91 101.99L470.19 101.79L470.48 101.59L470.76 101.39L471.05 101.19L471.33 101L471.62 100.81L471.9 100.62L472.19 100.43L472.48 100.25L472.77 100.07L473.06 99.89L473.35 99.71L473.64 99.54L473.93 99.37L474.22 99.2L474.51 99.03L474.81 98.87L475.1 98.71L475.4 98.55L475.69 98.39L475.99 98.24L476.28 98.09L476.58 97.94L476.52 97.66L476.47 97.38L476.42 97.1L476.37 96.83L476.33 96.55L476.28 96.28L476.24 96L476.19 95.73L476.15 95.46L476.11 95.19L476.07 94.93L476.03 94.66L475.99 94.4L475.96 94.13L475.92 93.87L475.89 93.61L475.86 93.35L475.83 93.09L475.8 92.84L475.77 92.58L475.74 92.33L475.71 92.08L475.69 91.83L475.66 91.58L475.64 91.33L475.62 91.09L475.6 90.84L475.58 90.6L475.56 90.36L475.55 90.12L475.53 89.88L475.52 89.64L475.51 89.41L475.5 89.17L475.49 88.94L475.48 88.71L475.47 88.48L475.46 88.25L475.46 88.03L475.46 87.8L475.46 86.91L475.49 86.02L475.55 85.12L475.64 84.24L475.75 83.36L475.89 82.48L476.06 81.61L476.25 80.74L476.47 79.88L476.7 79.03L476.96 78.19L477.24 77.35L477.54 76.53L477.86 75.71L478.2 74.91L478.56 74.12L478.93 73.34L479.32 72.57L479.73 71.82L480.15 71.08L480.59 70.36L481.04 69.65L481.5 68.96L481.97 68.29L482.45 67.63L482.95 67L483.45 66.38L483.96 65.78L484.48 65.21L485.01 64.65L485.54 64.12L486.08 63.6L486.62 63.12L487.17 62.65L487.72 62.22L488.27 61.8L488.82 61.41L489.37 61.05L489.93 60.72L490.48 60.42L490.78 60.26L491.07 60.12L491.37 59.98L491.67 59.85L491.97 59.73L492.27 59.62L492.57 59.51L492.87 59.41L493.17 59.32L493.47 59.24L493.77 59.16L494.07 59.09L494.37 59.03L494.67 58.98L494.97 58.93L495.26 58.89L495.56 58.86L495.86 58.84L496.15 58.82L496.45 58.82L496.74 58.82L497.03 58.82L497.32 58.84ZM495.59 66.03L495.15 66.16L494.69 66.35L494.21 66.57L493.73 66.84L493.24 67.14L492.75 67.49L492.25 67.88L491.75 68.3L491.24 68.76L490.74 69.26L490.24 69.78L489.74 70.34L489.25 70.93L488.76 71.54L488.28 72.19L487.82 72.86L487.36 73.55L486.92 74.27L486.49 75L486.08 75.76L485.69 76.54L485.31 77.33L484.96 78.14L484.63 78.97L484.33 79.81L484.05 80.66L483.8 81.52L483.58 82.39L483.4 83.26L483.24 84.15L483.12 85.04L483.03 85.93L482.99 86.82L482.98 87.71L482.98 88.07L482.99 88.43L483.01 88.79L483.03 89.15L483.05 89.52L483.07 89.88L483.1 90.25L483.13 90.62L483.16 90.99L483.2 91.36L483.24 91.73L483.28 92.1L483.32 92.48L483.37 92.85L483.42 93.22L483.47 93.6L483.52 93.97L483.58 94.34L483.64 94.72L483.7 95.09L483.76 95.46L483.83 95.83L483.89 96.2L483.96 96.57L484.03 96.94L484.1 97.31L484.17 97.67L484.25 98.03L484.32 98.39L484.4 98.75L484.47 99.11L484.55 99.46L484.63 99.81L484.71 100.16L484.79 100.51L484.87 100.85L484.95 101.19L485.03 101.53L485.11 101.86L485.19 102.19L484.8 102.31L484.4 102.43L484.01 102.56L483.61 102.7L483.22 102.85L482.83 102.99L482.44 103.15L482.05 103.31L481.66 103.47L481.28 103.64L480.89 103.82L480.51 104L480.13 104.18L479.75 104.38L479.37 104.57L478.99 104.77L478.61 104.98L478.24 105.19L477.87 105.4L477.49 105.62L477.13 105.85L476.76 106.07L476.39 106.31L476.03 106.54L475.67 106.79L475.31 107.03L474.95 107.28L474.59 107.54L474.24 107.79L473.89 108.06L473.54 108.32L473.19 108.59L472.85 108.87L472.51 109.14L472.17 109.42L471.83 109.71L471.49 110L471.16 110.29L470.83 110.58L470.5 110.88L470.06 111.29L469.62 111.68L469.19 112.07L468.76 112.44L468.34 112.81L467.93 113.16L467.53 113.51L467.13 113.85L466.74 114.18L466.35 114.5L465.97 114.81L465.59 115.12L465.22 115.42L464.85 115.71L464.49 116L464.13 116.28L463.77 116.55L463.42 116.82L463.07 117.09L462.73 117.35L462.39 117.61L462.05 117.86L461.71 118.11L461.38 118.35L461.05 118.6L460.72 118.84L460.4 119.08L460.07 119.31L459.75 119.55L459.42 119.79L459.1 120.02L458.78 120.25L458.46 120.49L458.14 120.72L457.82 120.96L457.5 121.19L457.18 121.43L456.86 121.67L456.54 121.91L456.21 122.16L455.53 122.47L454.82 122.81L454.1 123.17L453.37 123.55L452.63 123.95L451.88 124.36L451.11 124.8L450.34 125.25L449.57 125.72L448.79 126.2L448 126.69L447.22 127.2L446.43 127.73L445.64 128.26L444.86 128.81L444.08 129.37L443.3 129.93L442.53 130.51L441.77 131.09L441.02 131.68L440.28 132.28L439.55 132.88L438.83 133.49L438.12 134.1L437.44 134.72L436.76 135.34L436.11 135.96L435.48 136.58L434.87 137.21L434.28 137.83L433.72 138.45L433.18 139.07L432.66 139.69L432.18 140.3L431.73 140.91L431.3 141.51L430.91 142.11L430.55 142.7L430.23 143.29L429.94 143.86L429.34 145.2L428.82 146.51L428.35 147.81L427.95 149.09L427.62 150.36L427.34 151.61L427.13 152.85L426.98 154.07L426.89 155.27L426.86 156.46L426.89 157.64L426.98 158.8L427.12 159.95L427.32 161.08L427.57 162.2L427.88 163.3L428.24 164.39L428.65 165.47L429.12 166.53L429.64 167.58L430.2 168.62L430.82 169.64L431.48 170.65L432.19 171.65L432.94 172.64L433.74 173.61L434.59 174.57L435.48 175.52L436.41 176.46L437.39 177.38L438.4 178.29L439.46 179.2L440.56 180.09L441.69 180.97L442.86 181.84L444.07 182.69L445.31 183.54L446.59 184.38L447.91 185.21L449.25 186.02L450.61 186.82L451.97 187.58L453.32 188.31L454.67 189.01L456.01 189.67L457.35 190.29L458.68 190.88L460 191.43L461.32 191.94L462.63 192.41L463.93 192.84L465.23 193.24L466.52 193.59L467.81 193.89L469.09 194.16L470.36 194.38L471.62 194.55L472.87 194.68L474.11 194.77L475.35 194.81L476.58 194.79L477.8 194.73L479.01 194.62L480.21 194.46L481.4 194.25L482.58 193.99L483.75 193.67L484.91 193.3L486.06 192.87L487.2 192.39L488.33 191.86L489.45 191.26L490.56 190.61L491.65 189.9L492.73 189.13L493.8 188.3L494.86 187.41L495.91 186.46L496.94 185.45L497.97 184.37L498.39 183.88L498.82 183.35L499.23 182.79L499.63 182.2L500.03 181.58L500.42 180.94L500.8 180.26L501.17 179.56L501.54 178.83L501.89 178.09L502.23 177.32L502.57 176.53L502.89 175.73L503.21 174.91L503.52 174.07L503.81 173.22L504.1 172.36L504.37 171.49L504.64 170.61L504.89 169.72L505.14 168.82L505.37 167.92L505.59 167.02L505.8 166.12L506 165.22L506.19 164.31L506.36 163.42L506.53 162.52L506.68 161.63L506.82 160.75L506.95 159.88L507.06 159.02L507.16 158.17L507.25 157.34L507.33 156.52L507.39 155.72L507.44 154.93L507.48 154.17L507.5 153.42L507.51 152.7L507.6 152.32L507.7 151.94L507.79 151.57L507.88 151.19L507.97 150.82L508.06 150.45L508.15 150.07L508.23 149.7L508.32 149.33L508.41 148.95L508.49 148.58L508.58 148.2L508.67 147.82L508.76 147.44L508.85 147.06L508.94 146.67L509.03 146.28L509.13 145.89L509.22 145.49L509.32 145.09L509.43 144.69L509.53 144.28L509.64 143.87L509.75 143.45L509.87 143.02L509.98 142.59L510.11 142.15L510.23 141.7L510.37 141.25L510.5 140.79L510.65 140.32L510.79 139.85L510.95 139.36L511.1 138.87L511.27 138.37L511.44 137.86L511.62 137.33L511.8 136.8L511.99 136.26L512.19 135.71L512.34 135.3L512.48 134.89L512.61 134.48L512.75 134.07L512.87 133.66L513 133.25L513.12 132.84L513.23 132.43L513.34 132.02L513.45 131.61L513.55 131.2L513.64 130.79L513.73 130.38L513.82 129.96L513.9 129.55L513.98 129.14L514.05 128.73L514.12 128.32L514.18 127.91L514.23 127.5L514.29 127.09L514.33 126.68L514.37 126.27L514.41 125.86L514.44 125.46L514.46 125.05L514.48 124.64L514.5 124.24L514.51 123.83L514.51 123.43L514.51 123.03L514.5 122.63L514.48 122.23L514.46 121.83L514.44 121.43L514.41 121.04L514.37 120.64L514.33 120.25L514.28 119.86L514.22 119.47L514.57 119.4L514.93 119.33L515.28 119.25L515.64 119.18L516.01 119.1L516.37 119.02L516.74 118.94L517.11 118.85L517.48 118.77L517.86 118.68L518.24 118.59L518.61 118.5L518.99 118.41L519.37 118.31L519.76 118.21L520.14 118.11L520.52 118.01L520.9 117.91L521.29 117.81L521.67 117.7L522.05 117.59L522.44 117.48L522.82 117.37L523.2 117.26L523.58 117.14L523.96 117.02L524.34 116.9L524.72 116.78L525.09 116.65L525.47 116.53L525.84 116.4L526.21 116.27L526.57 116.14L526.94 116L527.3 115.87L527.66 115.73L528.01 115.59L528.36 115.44L528.71 115.3L529.05 115.15L529.91 114.76L530.74 114.34L531.56 113.88L532.36 113.4L533.14 112.89L533.9 112.35L534.64 111.79L535.36 111.21L536.05 110.61L536.73 109.99L537.38 109.36L538 108.71L538.61 108.05L539.18 107.38L539.73 106.71L540.26 106.03L540.76 105.34L541.23 104.66L541.67 103.97L542.08 103.29L542.46 102.61L542.81 101.94L543.13 101.28L543.42 100.63L543.68 99.99L543.9 99.36L544.09 98.75L544.25 98.16L544.37 97.59L544.46 97.04L544.51 96.52L544.52 96.02L544.5 95.55L544.43 95.11L544.33 94.7L544.19 94.33L544.01 94L543.79 93.7L543.52 93.44L543.22 93.22L543.18 93.2L543.13 93.17L543.09 93.15L543.05 93.13L543 93.11L542.95 93.09L542.91 93.06L542.86 93.05L542.81 93.03L542.76 93.01L542.71 92.99L542.66 92.98L542.61 92.96L542.56 92.94L542.51 92.93L542.45 92.92L542.4 92.91L542.34 92.89L542.29 92.88L542.23 92.87L542.17 92.86L542.12 92.86L542.06 92.85L542 92.84L541.94 92.84L541.88 92.83L541.82 92.83L541.75 92.82L541.69 92.82L541.63 92.82L541.56 92.82L541.5 92.82L541.43 92.82L541.36 92.82L541.3 92.83L541.23 92.83L541.16 92.83L541.09 92.84L541.02 92.85L540.95 92.85L540.24 92.94L539.51 93.06L538.76 93.21L538 93.38L537.22 93.57L536.42 93.79L535.6 94.03L534.77 94.29L533.93 94.57L533.08 94.87L532.22 95.19L531.35 95.53L530.47 95.88L529.59 96.25L528.7 96.63L527.81 97.02L526.91 97.43L526.01 97.84L525.11 98.27L524.22 98.7L523.32 99.15L522.43 99.59L521.54 100.05L520.66 100.51L519.78 100.97L518.91 101.44L518.05 101.9L517.2 102.37L516.37 102.83L515.54 103.3L514.73 103.76L513.94 104.22L513.16 104.67L512.4 105.12L511.65 105.55L510.93 105.99L510.23 106.41L509.55 106.82L508.89 107.22L508.26 107.61L508.17 107.52L508.08 107.43L507.98 107.35L507.89 107.26L507.8 107.17L507.7 107.09L507.61 107L507.51 106.91L507.41 106.83L507.32 106.74L507.22 106.66L507.12 106.57L507.02 106.49L506.92 106.41L506.82 106.32L506.72 106.24L506.61 106.16L506.51 106.08L506.41 105.99L506.3 105.91L506.2 105.83L506.09 105.75L505.98 105.67L505.88 105.59L505.77 105.51L505.66 105.43L505.55 105.36L505.44 105.28L505.32 105.2L505.21 105.12L505.1 105.05L504.98 104.97L504.87 104.89L504.75 104.82L504.64 104.74L504.52 104.67L504.4 104.6L504.28 104.52L504.16 104.45L504.04 104.38L503.92 104.31L503.8 104.23L503.68 104.16L503.55 104.1L503.43 104.03L503.31 103.96L503.19 103.89L503.07 103.83L502.94 103.76L502.82 103.7L502.7 103.64L502.58 103.58L502.46 103.51L502.33 103.45L502.21 103.4L502.09 103.34L501.97 103.28L501.84 103.22L501.72 103.17L501.6 103.11L501.47 103.06L501.35 103L501.23 102.95L501.11 102.9L500.98 102.85L500.86 102.8L500.74 102.75L500.61 102.7L500.49 102.65L500.37 102.6L500.24 102.56L500.12 102.51L500 102.47L499.87 102.42L499.75 102.38L499.62 102.34L499.5 102.29L499.38 102.25L499.25 102.21L499.13 102.17L499.23 101.47L499.33 100.74L499.44 99.98L499.54 99.2L499.64 98.4L499.75 97.58L499.85 96.74L499.95 95.89L500.04 95.01L500.14 94.13L500.23 93.22L500.32 92.31L500.4 91.39L500.48 90.46L500.55 89.52L500.62 88.58L500.68 87.63L500.74 86.68L500.78 85.73L500.82 84.77L500.85 83.82L500.88 82.88L500.89 81.93L500.9 81L500.89 80.07L500.87 79.15L500.85 78.24L500.81 77.34L500.76 76.45L500.69 75.59L500.62 74.73L500.53 73.9L500.42 73.08L500.3 72.28L500.17 71.51L500.02 70.76L499.85 70.04L499.67 69.34L499.47 68.67L499.26 68.03L499.23 67.97L499.21 67.9L499.18 67.84L499.16 67.78L499.13 67.72L499.11 67.66L499.08 67.6L499.05 67.55L499.02 67.49L499 67.43L498.97 67.38L498.94 67.33L498.91 67.28L498.88 67.23L498.85 67.18L498.81 67.13L498.78 67.08L498.75 67.03L498.72 66.99L498.68 66.94L498.65 66.9L498.62 66.86L498.58 66.81L498.55 66.77L498.51 66.73L498.47 66.69L498.44 66.66L498.4 66.62L498.36 66.58L498.33 66.55L498.29 66.51L498.25 66.48L498.21 66.45L498.17 66.42L498.13 66.39L498.09 66.36L498.05 66.33L498.01 66.3L497.97 66.28L497.92 66.25L497.59 66.08L497.23 65.97L496.85 65.91L496.45 65.9L496.03 65.94L495.59 66.03Z" id="cbtixA9Blh"></path><path d="M475.12 114.18C473.95 115.92 474.5 118.23 476.35 119.33C478.2 120.43 480.65 119.91 481.82 118.17C482.99 116.43 482.44 114.12 480.59 113.02C478.74 111.92 476.29 112.44 475.12 114.18Z" id="a498Fhxx4u"></path><path d="M500.34 129.2C499.18 130.94 499.72 133.25 501.58 134.35C503.42 135.45 505.88 134.93 507.04 133.19C508.21 131.45 507.66 129.14 505.81 128.04C503.96 126.94 501.51 127.46 500.34 129.2Z" id="c13Jhi9k9"></path><path d="M478.61 127.34C478.53 130.55 479.8 133.46 481.59 135.18C481.49 135.33 480.98 136.1 480.05 137.47C476.08 137.77 473.86 137.93 473.42 137.96C472.59 138.02 471.98 138.71 472.04 139.49C472.11 140.27 472.83 140.85 473.66 140.79C474.08 140.76 476.16 140.6 479.92 140.32C481.26 143.64 482.01 145.48 482.16 145.85C482.45 146.58 483.32 146.94 484.1 146.66C484.87 146.38 485.26 145.57 484.97 144.84C484.81 144.45 484.02 142.5 482.6 138.98C483.52 137.61 484.03 136.84 484.13 136.69C486.55 137.48 489.88 137.31 492.93 135.86C496.6 134.12 492.8 131.07 488.03 128.23C483.26 125.39 478.71 123.46 478.61 127.34Z" id="bALO7p6dM"></path><path d="M317.94 124.06C317.94 116.56 317.94 56.63 317.94 49.14C317.94 47.26 319.46 45.73 321.34 45.73C323.22 45.73 324.75 47.26 324.75 49.14C324.75 56.63 324.75 116.56 324.75 124.06C324.75 125.94 323.22 127.46 321.34 127.46C319.46 127.46 317.94 125.94 317.94 124.06Z" id="a5zvS5XiXT"></path><path d="M303.18 117.25C303.18 111.12 303.18 62.08 303.18 55.95C303.18 54.07 304.7 52.54 306.59 52.54C308.47 52.54 309.99 54.07 309.99 55.95C309.99 62.08 309.99 111.12 309.99 117.25C309.99 119.13 308.47 120.65 306.59 120.65C304.7 120.65 303.18 119.13 303.18 117.25Z" id="bDBtJDcAH"></path><path d="M291.83 62.76L291.83 110.44" id="g20t6JttkA"></path><path d="M288.42 110.44C288.42 105.67 288.42 67.53 288.42 62.76C288.42 60.88 289.95 59.35 291.83 59.35C293.71 59.35 295.23 60.88 295.23 62.76C295.23 67.53 295.23 105.67 295.23 110.44C295.23 112.32 293.71 113.84 291.83 113.84C289.95 113.84 288.42 112.32 288.42 110.44Z" id="c1MdE1FF1F"></path><path d="M273.67 100.22C273.67 97.49 273.67 75.7 273.67 72.98C273.67 71.1 275.19 69.57 277.07 69.57C278.95 69.57 280.48 71.1 280.48 72.98C280.48 75.7 280.48 97.49 280.48 100.22C280.48 102.1 278.95 103.62 277.07 103.62C275.19 103.62 273.67 102.1 273.67 100.22Z" id="c4End9AsRd"></path><path d="M362.21 100.22C362.21 97.49 362.21 75.7 362.21 72.98C362.21 71.1 363.73 69.57 365.61 69.57C367.49 69.57 369.02 71.1 369.02 72.98C369.02 75.7 369.02 97.49 369.02 100.22C369.02 102.1 367.49 103.62 365.61 103.62C363.73 103.62 362.21 102.1 362.21 100.22Z" id="f9j4c4dnC"></path><path d="M350.86 62.76L350.86 110.44" id="c28AgjkhX"></path><path d="M347.45 110.44C347.45 105.67 347.45 67.53 347.45 62.76C347.45 60.88 348.97 59.35 350.86 59.35C352.74 59.35 354.26 60.88 354.26 62.76C354.26 67.53 354.26 105.67 354.26 110.44C354.26 112.32 352.74 113.84 350.86 113.84C348.97 113.84 347.45 112.32 347.45 110.44Z" id="a8rfzeVtP"></path><path d="M332.69 117.25C332.69 111.12 332.69 62.08 332.69 55.95C332.69 54.07 334.22 52.54 336.1 52.54C337.98 52.54 339.5 54.07 339.5 55.95C339.5 62.08 339.5 111.12 339.5 117.25C339.5 119.13 337.98 120.65 336.1 120.65C334.22 120.65 332.69 119.13 332.69 117.25Z" id="dmO84xxTS"></path><path d="M77.33 226.04C79.87 228.98 80.82 231.45 79.5 232.84C78.14 234.27 65.49 230.95 50.57 223.29C50.57 223.29 50.57 223.29 50.57 223.29C50.55 223.28 50.54 223.28 50.53 223.27C35.61 215.61 25.54 207.25 25.91 205.32C26.27 203.43 28.84 202.77 32.71 203.12C33.72 202.02 34.81 201.01 35.97 200.11C26.81 197.73 20 197.93 18.3 201.25C14.5 208.64 27.72 220.76 46.72 230.6C46.73 230.61 46.74 230.62 46.75 230.62C46.78 230.63 46.8 230.65 46.83 230.66C65.89 240.37 83.45 244.05 87.24 236.66C88.95 233.34 85.14 227.69 77.87 221.63C77.82 223.1 77.64 224.57 77.33 226.04Z" id="c4kDegU8cm"></path><path d="M51.78 220.79C60.52 225.28 68.21 228.12 73.21 229.5C73.37 229.22 73.53 228.94 73.67 228.65C79.49 217.33 75.02 203.44 63.7 197.63C52.38 191.81 38.49 196.28 32.68 207.6C32.53 207.88 32.39 208.17 32.26 208.46C36.29 211.72 43.07 216.32 51.78 220.79C51.78 220.79 51.78 220.79 51.78 220.79Z" id="a1p5dv253G"></path><path d="M45.58 233.14L45.52 233.11C45.49 233.09 45.47 233.08 45.46 233.08C39.58 230.03 34.23 226.75 29.75 223.47C30.94 230.37 35.23 236.64 41.94 240.09C48.64 243.53 56.25 243.36 62.54 240.31C57.27 238.58 51.49 236.15 45.58 233.14C45.58 233.14 45.58 233.14 45.58 233.14Z" id="a1hAEmo5B"></path><path d="M541.07 573.62C538.53 576.56 537.57 579.03 538.89 580.42C540.25 581.85 552.91 578.54 567.83 570.88C567.83 570.88 567.83 570.88 567.83 570.88C567.84 570.87 567.85 570.86 567.87 570.86C582.79 563.2 592.86 554.84 592.48 552.9C592.12 551.02 589.56 550.36 585.69 550.71C584.68 549.6 583.59 548.6 582.42 547.69C591.59 545.32 598.4 545.52 600.1 548.84C603.89 556.23 590.67 568.35 571.68 578.19C571.67 578.2 571.65 578.2 571.64 578.21C571.62 578.22 571.59 578.24 571.57 578.25C552.5 587.95 534.95 591.64 531.15 584.24C529.45 580.93 533.25 575.28 540.52 569.21C540.58 570.68 540.76 572.16 541.07 573.62Z" id="b2V5QNvniN"></path><path d="M566.61 568.38C557.87 572.87 550.18 575.7 545.18 577.08C545.02 576.8 544.87 576.52 544.72 576.24C538.91 564.92 543.37 551.03 554.69 545.21C566.02 539.4 579.9 543.87 585.72 555.18C585.87 555.47 586 555.76 586.14 556.05C582.11 559.31 575.33 563.9 566.62 568.38C566.61 568.38 566.61 568.38 566.61 568.38Z" id="dHzcpqg2J"></path><path d="M572.81 580.73L572.87 580.7C572.91 580.68 572.93 580.67 572.93 580.67C578.82 577.62 584.16 574.33 588.64 571.05C587.46 577.95 583.16 584.23 576.46 587.68C569.75 591.12 562.15 590.95 555.85 587.89C561.12 586.17 566.9 583.74 572.81 580.73C572.81 580.73 572.81 580.73 572.81 580.73Z" id="a4Op1Snay"></path></defs><g><g><g><use xlink:href="#a8qVzDYcT2" opacity="1" fill="#041c3f" fill-opacity="1"></use><g><use xlink:href="#a8qVzDYcT2" opacity="1" fill-opacity="0" stroke="#000000" stroke-width="1" stroke-opacity="0"></use></g></g><g><use xlink:href="#a1lm7iVmiK" opacity="1" fill="#041c3f" fill-opacity="1"></use><g><use xlink:href="#a1lm7iVmiK" opacity="1" fill-opacity="0" stroke="#000000" stroke-width="1" stroke-opacity="0"></use></g></g><g><use xlink:href="#dbX5SP7uj" opacity="1" fill="#041c3f" fill-opacity="1"></use><g><use xlink:href="#dbX5SP7uj" opacity="1" fill-opacity="0" stroke="#000000" stroke-width="1" stroke-opacity="0"></use></g></g><g><use xlink:href="#aSJHv4QOV" opacity="1" fill="#041c3f" fill-opacity="1"></use><g><use xlink:href="#aSJHv4QOV" opacity="1" fill-opacity="0" stroke="#000000" stroke-width="1" stroke-opacity="0"></use></g></g><g><use xlink:href="#a5bc4DmrzX" opacity="1" fill="#4b4b4b" fill-opacity="1"></use><g><use xlink:href="#a5bc4DmrzX" opacity="1" fill-opacity="0" stroke="#000000" stroke-width="1" stroke-opacity="0"></use></g></g><g><use xlink:href="#iJq2dygHY" opacity="1" fill="#4b4b4b" fill-opacity="1"></use><g><use xlink:href="#iJq2dygHY" opacity="1" fill-opacity="0" stroke="#000000" stroke-width="1" stroke-opacity="0"></use></g></g><g><use xlink:href="#a1BqgRXAqu" opacity="1" fill="#4b4b4b" fill-opacity="1"></use><g><use xlink:href="#a1BqgRXAqu" opacity="1" fill-opacity="0" stroke="#000000" stroke-width="1" stroke-opacity="0"></use></g></g><g><use xlink:href="#a3BqKPj1c7" opacity="1" fill="#4b4b4b" fill-opacity="1"></use><g><use xlink:href="#a3BqKPj1c7" opacity="1" fill-opacity="0" stroke="#000000" stroke-width="1" stroke-opacity="0"></use></g></g><g><use xlink:href="#b2qBlENPkq" opacity="1" fill="#4b4b4b" fill-opacity="1"></use><g><use xlink:href="#b2qBlENPkq" opacity="1" fill-opacity="0" stroke="#000000" stroke-width="1" stroke-opacity="0"></use></g></g><g><use xlink:href="#ajy5lZ2YF" opacity="1" fill="#4b4b4b" fill-opacity="1"></use><g><use xlink:href="#ajy5lZ2YF" opacity="1" fill-opacity="0" stroke="#000000" stroke-width="1" stroke-opacity="0"></use></g></g><g><use xlink:href="#aEp6LEjQ3" opacity="1" fill="#4b4b4b" fill-opacity="1"></use><g><use xlink:href="#aEp6LEjQ3" opacity="1" fill-opacity="0" stroke="#000000" stroke-width="1" stroke-opacity="0"></use></g></g><g><use xlink:href="#c1tAsrxiEo" opacity="1" fill="#4b4b4b" fill-opacity="1"></use><g><use xlink:href="#c1tAsrxiEo" opacity="1" fill-opacity="0" stroke="#000000" stroke-width="1" stroke-opacity="0"></use></g></g><g><use xlink:href="#d443Ih2OlQ" opacity="1" fill="#4b4b4b" fill-opacity="1"></use><g><use xlink:href="#d443Ih2OlQ" opacity="1" fill-opacity="0" stroke="#000000" stroke-width="1" stroke-opacity="0"></use></g></g><g><use xlink:href="#dpj5F89tL" opacity="1" fill="#4b4b4b" fill-opacity="1"></use><g><use xlink:href="#dpj5F89tL" opacity="1" fill-opacity="0" stroke="#000000" stroke-width="1" stroke-opacity="0"></use></g></g><g><use xlink:href="#cbtixA9Blh" opacity="1" fill="#4b4b4b" fill-opacity="1"></use><g><use xlink:href="#cbtixA9Blh" opacity="1" fill-opacity="0" stroke="#000000" stroke-width="1" stroke-opacity="0"></use></g></g><g><use xlink:href="#a498Fhxx4u" opacity="1" fill="#4b4b4b" fill-opacity="1"></use><g><use xlink:href="#a498Fhxx4u" opacity="1" fill-opacity="0" stroke="#000000" stroke-width="1" stroke-opacity="0"></use></g></g><g><use xlink:href="#c13Jhi9k9" opacity="1" fill="#4b4b4b" fill-opacity="1"></use><g><use xlink:href="#c13Jhi9k9" opacity="1" fill-opacity="0" stroke="#000000" stroke-width="1" stroke-opacity="0"></use></g></g><g><use xlink:href="#bALO7p6dM" opacity="1" fill="#4b4b4b" fill-opacity="1"></use><g><use xlink:href="#bALO7p6dM" opacity="1" fill-opacity="0" stroke="#000000" stroke-width="1" stroke-opacity="0"></use></g></g><g><use xlink:href="#a5zvS5XiXT" opacity="1" fill="#000000" fill-opacity="1"></use><g><use xlink:href="#a5zvS5XiXT" opacity="1" fill-opacity="0" stroke="#000000" stroke-width="1" stroke-opacity="0"></use></g></g><g><use xlink:href="#bDBtJDcAH" opacity="1" fill="#000000" fill-opacity="1"></use><g><use xlink:href="#bDBtJDcAH" opacity="1" fill-opacity="0" stroke="#000000" stroke-width="1" stroke-opacity="0"></use></g></g><g><use xlink:href="#g20t6JttkA" opacity="1" fill="#000000" fill-opacity="1"></use><g><use xlink:href="#g20t6JttkA" opacity="1" fill-opacity="0" stroke="#000000" stroke-width="1" stroke-opacity="0"></use></g></g><g><use xlink:href="#c1MdE1FF1F" opacity="1" fill="#000000" fill-opacity="1"></use><g><use xlink:href="#c1MdE1FF1F" opacity="1" fill-opacity="0" stroke="#000000" stroke-width="1" stroke-opacity="0"></use></g></g><g><use xlink:href="#c4End9AsRd" opacity="1" fill="#000000" fill-opacity="1"></use><g><use xlink:href="#c4End9AsRd" opacity="1" fill-opacity="0" stroke="#000000" stroke-width="1" stroke-opacity="0"></use></g></g><g><use xlink:href="#f9j4c4dnC" opacity="1" fill="#000000" fill-opacity="1"></use><g><use xlink:href="#f9j4c4dnC" opacity="1" fill-opacity="0" stroke="#000000" stroke-width="1" stroke-opacity="0"></use></g></g><g><use xlink:href="#c28AgjkhX" opacity="1" fill="#000000" fill-opacity="1"></use><g><use xlink:href="#c28AgjkhX" opacity="1" fill-opacity="0" stroke="#000000" stroke-width="1" stroke-opacity="0"></use></g></g><g><use xlink:href="#a8rfzeVtP" opacity="1" fill="#000000" fill-opacity="1"></use><g><use xlink:href="#a8rfzeVtP" opacity="1" fill-opacity="0" stroke="#000000" stroke-width="1" stroke-opacity="0"></use></g></g><g><use xlink:href="#dmO84xxTS" opacity="1" fill="#000000" fill-opacity="1"></use><g><use xlink:href="#dmO84xxTS" opacity="1" fill-opacity="0" stroke="#000000" stroke-width="1" stroke-opacity="0"></use></g></g><g><use xlink:href="#c4kDegU8cm" opacity="1" fill="#4b4b4b" fill-opacity="1"></use><g><use xlink:href="#c4kDegU8cm" opacity="1" fill-opacity="0" stroke="#000000" stroke-width="1" stroke-opacity="0"></use></g></g><g><use xlink:href="#a1p5dv253G" opacity="1" fill="#4b4b4b" fill-opacity="1"></use><g><use xlink:href="#a1p5dv253G" opacity="1" fill-opacity="0" stroke="#000000" stroke-width="1" stroke-opacity="0"></use></g></g><g><use xlink:href="#a1hAEmo5B" opacity="1" fill="#4b4b4b" fill-opacity="1"></use><g><use xlink:href="#a1hAEmo5B" opacity="1" fill-opacity="0" stroke="#000000" stroke-width="1" stroke-opacity="0"></use></g></g><g><use xlink:href="#b2V5QNvniN" opacity="1" fill="#4b4b4b" fill-opacity="1"></use><g><use xlink:href="#b2V5QNvniN" opacity="1" fill-opacity="0" stroke="#000000" stroke-width="1" stroke-opacity="0"></use></g></g><g><use xlink:href="#dHzcpqg2J" opacity="1" fill="#4b4b4b" fill-opacity="1"></use><g><use xlink:href="#dHzcpqg2J" opacity="1" fill-opacity="0" stroke="#000000" stroke-width="1" stroke-opacity="0"></use></g></g><g><use xlink:href="#a4Op1Snay" opacity="1" fill="#4b4b4b" fill-opacity="1"></use><g><use xlink:href="#a4Op1Snay" opacity="1" fill-opacity="0" stroke="#000000" stroke-width="1" stroke-opacity="0"></use></g></g></g></g></svg>