<?xml version="1.0" encoding="utf-8"?>
<!-- Generator: Adobe Illustrator 24.0.3, SVG Export Plug-In . SVG Version: 6.00 Build 0)  -->
<svg version="1.1" id="圖層_1" xmlns="http://www.w3.org/2000/svg" xmlns:xlink="http://www.w3.org/1999/xlink" x="0px" y="0px"
	 viewBox="0 0 600 600" style="enable-background:new 0 0 600 600;" xml:space="preserve">
<style type="text/css">
	.st0{fill:#041C3F;}
	.st1{fill:none;stroke:#041C3F;stroke-width:5;stroke-linecap:round;stroke-linejoin:round;stroke-miterlimit:10;}
</style>
<g>
	<path class="st0" d="M508.49,280.66c-11.48-27.15-27.92-51.53-48.85-72.46c-20.93-20.93-45.32-37.37-72.46-48.85
		c-22.12-9.36-45.32-15.07-69.2-17.08c-0.16-0.02-0.33-0.03-0.49-0.04c-6.31-0.52-12.66-0.79-19.06-0.79
		c-30.77,0-60.63,6.03-88.75,17.92c-27.15,11.48-51.53,27.92-72.46,48.85c-20.93,20.93-37.37,45.31-48.85,72.46
		c-11.89,28.11-17.92,57.97-17.92,88.74s6.03,60.63,17.92,88.74c11.48,27.15,27.92,51.53,48.85,72.46
		c20.93,20.93,45.31,37.37,72.46,48.85c28.12,11.89,57.97,17.92,88.75,17.92c30.77,0,60.63-6.03,88.74-17.92
		c27.15-11.48,51.53-27.92,72.46-48.85c20.93-20.93,37.37-45.31,48.85-72.46c11.89-28.12,17.92-57.97,17.92-88.74
		C526.41,338.63,520.38,308.77,508.49,280.66z M298.43,165.64c2.57,0,5.12,0.06,7.66,0.16c0.02,0.61,0.05,1.23,0.05,1.84
		c0,26.16-21.28,47.45-47.44,47.45c-20.36,0-37.92-12.68-44.59-31.16C239.81,172.18,268.37,165.64,298.43,165.64z M405.57,542.65
		c-13.75-8.19-22.37-23.05-22.37-39.35c0-25.26,20.55-45.8,45.81-45.8c16.8,0,31.88,9.01,39.92,23.36
		C452.57,505.78,430.92,526.91,405.57,542.65z M482.06,457.67c-3.9-4.53-8.36-8.6-13.36-12.05c-11.71-8.07-25.44-12.34-39.7-12.34
		c-38.61,0-70.02,31.41-70.02,70.02c0,20.16,8.64,38.86,23.07,51.91c-25.53,11.53-53.84,17.96-83.62,17.96
		c-112.36,0-203.77-91.41-203.77-203.77c0-73.63,39.26-138.27,97.95-174.08c4.29,10.21,10.91,19.39,19.43,26.71
		c12.97,11.13,29.54,17.27,46.66,17.27c39.34,0,71.37-31.87,71.65-71.16c97.25,15.36,171.85,99.76,171.85,201.26
		C502.19,401,494.96,430.95,482.06,457.67z"/>
	<path class="st0" d="M226.29,405.5c-30.71,0-55.7,24.99-55.7,55.7c0,30.71,24.99,55.69,55.7,55.69s55.7-24.98,55.7-55.69
		C281.99,430.48,257,405.5,226.29,405.5z M226.29,492.67c-17.36,0-31.48-14.12-31.48-31.48c0-17.36,14.12-31.48,31.48-31.48
		s31.48,14.12,31.48,31.48C257.77,478.55,243.65,492.67,226.29,492.67z"/>
	<path class="st0" d="M186.79,277.51c-21.66,0-39.28,17.62-39.28,39.28c0,21.66,17.62,39.28,39.28,39.28
		c21.66,0,39.28-17.62,39.28-39.28C226.08,295.13,208.46,277.51,186.79,277.51z M186.79,331.85c-8.31,0-15.06-6.76-15.06-15.06
		c0-8.31,6.76-15.07,15.06-15.07c8.31,0,15.07,6.76,15.07,15.07C201.86,325.09,195.1,331.85,186.79,331.85z"/>
	<path class="st0" d="M379.96,255.44c-33.71,0-61.15,27.43-61.15,61.14c0,33.71,27.43,61.14,61.15,61.14s61.15-27.43,61.15-61.14
		C441.11,282.87,413.68,255.44,379.96,255.44z M379.96,353.51c-20.36,0-36.93-16.56-36.93-36.93c0-20.36,16.57-36.93,36.93-36.93
		c20.36,0,36.93,16.57,36.93,36.93C416.89,336.94,400.32,353.51,379.96,353.51z"/>
</g>
<g>
	<path class="st1" d="M150.18,85.77L150.18,85.77c16.1-7.62,35.52-0.68,43.14,15.43l10.75,22.71c1.35,2.86,2.25,5.83,2.71,8.82
		l2.1-0.45c7.22-1.54,14.39,3.13,15.92,10.35l0,0c1.53,7.23-3.13,14.39-10.35,15.93l-11.11,2.35c-1.99,0.42-3.98,0.37-5.83-0.07
		c-2.52,2.5-5.49,4.61-8.86,6.21l0,0c-3.32,1.57-6.77,2.52-10.24,2.9c-0.84,1.68-2.05,3.22-3.61,4.46l-8.87,7.1
		c-5.77,4.61-14.26,3.67-18.88-2.1l0,0c-4.61-5.76-3.67-14.26,2.09-18.87l1.49-1.19c-2.03-2.26-3.78-4.85-5.14-7.73l-10.75-22.71
		C127.12,112.8,134.07,93.39,150.18,85.77L150.18,85.77z"/>
	<path class="st1" d="M172.16,131.64c7.29-3.45,10.43-12.21,6.98-19.51c-3.45-7.29-12.21-10.42-19.51-6.97
		c-7.29,3.45-10.42,12.21-6.97,19.5C156.11,131.95,164.87,135.09,172.16,131.64L172.16,131.64z"/>
	<path class="st1" d="M168.5,123.91c3.04-1.44,4.35-5.09,2.91-8.13c-1.44-3.03-5.09-4.34-8.13-2.9c-3.04,1.44-4.34,5.09-2.9,8.12
		C161.82,124.04,165.46,125.35,168.5,123.91L168.5,123.91z"/>
	<path class="st1" d="M142.94,108.89c6.99-11.08,17.19-15.36,29.98-14.19"/>
	<line class="st1" x1="128.07" y1="92.68" x2="133.14" y2="103.4"/>
	<path class="st1" d="M128.26,92.23c2.63-1.25,3.77-4.41,2.52-7.04c-1.25-2.63-4.41-3.76-7.05-2.52c-2.63,1.24-3.76,4.41-2.52,7.04
		C122.46,92.35,125.63,93.47,128.26,92.23L128.26,92.23z"/>
	<line class="st1" x1="169.75" y1="72.96" x2="174.83" y2="83.67"/>
	<path class="st1" d="M169.94,72.5c2.63-1.25,3.77-4.41,2.52-7.04c-1.25-2.63-4.41-3.76-7.05-2.52c-2.63,1.24-3.76,4.41-2.52,7.04
		C164.15,72.62,167.31,73.75,169.94,72.5L169.94,72.5z"/>
	<path class="st1" d="M187.34,134.03l0.17,0.36c3.11,6.56,0.28,14.48-6.28,17.58l0,0c-6.57,3.11-14.48,0.27-17.59-6.29l-0.17-0.36
		L187.34,134.03z"/>
</g>
<g>
	<path class="st1" d="M447.73,87.23L447.73,87.23c15.75,7.96,22.11,27.36,14.15,43.11l-11.23,22.21c-1.41,2.8-3.19,5.3-5.25,7.48
		l1.63,1.37c5.59,4.72,6.3,13.15,1.58,18.74l0,0c-4.72,5.59-13.15,6.3-18.74,1.59l-8.59-7.26c-1.54-1.3-2.71-2.88-3.49-4.6
		c-3.49-0.45-6.94-1.49-10.24-3.16l0,0c-3.25-1.64-6.09-3.77-8.49-6.24c-1.82,0.37-3.76,0.35-5.68-0.11l-10.94-2.62
		c-7.11-1.71-11.54-8.92-9.83-16.04l0,0c1.71-7.11,8.92-11.54,16.03-9.83l1.84,0.44c0.53-2.96,1.5-5.9,2.92-8.72l11.23-22.21
		C412.58,85.64,431.98,79.27,447.73,87.23L447.73,87.23z"/>
	<path class="st1" d="M425.22,132.3c7.13,3.61,15.89,0.73,19.5-6.4c3.6-7.13,0.73-15.88-6.4-19.49c-7.13-3.6-15.88-0.73-19.49,6.4
		C415.21,119.94,418.09,128.7,425.22,132.3L425.22,132.3z"/>
	<path class="st1" d="M429.04,124.75c2.97,1.5,6.62,0.3,8.13-2.67c1.5-2.97,0.3-6.62-2.67-8.12c-2.97-1.5-6.62-0.3-8.12,2.66
		C424.87,119.6,426.06,123.25,429.04,124.75L429.04,124.75z"/>
	<path class="st1" d="M425.25,95.63c12.91-1.27,22.46,4.11,29.31,14.82"/>
	<line class="st1" x1="428.89" y1="74.15" x2="423.59" y2="84.63"/>
	<path class="st1" d="M429.35,74.02c2.58,1.3,5.74,0.27,7.04-2.31c1.3-2.58,0.26-5.74-2.32-7.04c-2.57-1.3-5.73-0.27-7.04,2.31
		C425.74,69.56,426.78,72.72,429.35,74.02L429.35,74.02z"/>
	<line class="st1" x1="469.64" y1="94.76" x2="464.34" y2="105.24"/>
	<path class="st1" d="M470.11,94.63c2.58,1.3,5.74,0.27,7.04-2.31c1.3-2.58,0.26-5.74-2.32-7.04c-2.57-1.3-5.73-0.27-7.04,2.31
		C466.5,90.17,467.54,93.33,470.11,94.63L470.11,94.63z"/>
	<path class="st1" d="M432.57,145.63l-0.18,0.36c-3.24,6.42-11.15,9.02-17.57,5.77l0,0c-6.42-3.25-9.01-11.16-5.77-17.58l0.18-0.36
		L432.57,145.63z"/>
</g>
<g>
	<g>
		<g>
			<path class="st0" d="M295.47,105.5c-1.39,0-2.52-1.13-2.52-2.52v-55.5c0-1.39,1.13-2.52,2.52-2.52c1.39,0,2.52,1.13,2.52,2.52
				v55.5C297.99,104.37,296.86,105.5,295.47,105.5z"/>
		</g>
		<g>
			<path class="st0" d="M284.54,100.46c-1.39,0-2.52-1.13-2.52-2.52V52.53c0-1.39,1.13-2.52,2.52-2.52c1.39,0,2.52,1.13,2.52,2.52
				v45.41C287.06,99.33,285.93,100.46,284.54,100.46z"/>
		</g>
		<g>
			<g>
				<g>
					<line id="SVGID_4_" class="st0" x1="273.6" y1="57.57" x2="273.6" y2="92.89"/>
				</g>
			</g>
			<path class="st0" d="M273.6,95.41c-1.39,0-2.52-1.13-2.52-2.52V57.57c0-1.39,1.13-2.52,2.52-2.52c1.39,0,2.52,1.13,2.52,2.52
				v35.32C276.13,94.28,275,95.41,273.6,95.41z"/>
		</g>
		<g>
			<path class="st0" d="M262.67,87.84c-1.39,0-2.52-1.13-2.52-2.52V65.14c0-1.39,1.13-2.52,2.52-2.52c1.39,0,2.52,1.13,2.52,2.52
				v20.18C265.19,86.72,264.07,87.84,262.67,87.84z"/>
		</g>
		<g>
			<path class="st0" d="M328.26,87.84c-1.39,0-2.52-1.13-2.52-2.52V65.14c0-1.39,1.13-2.52,2.52-2.52s2.52,1.13,2.52,2.52v20.18
				C330.78,86.72,329.65,87.84,328.26,87.84z"/>
		</g>
		<g>
			<g>
				<g>
					<line id="SVGID_2_" class="st0" x1="317.33" y1="57.57" x2="317.33" y2="92.89"/>
				</g>
			</g>
			<path class="st0" d="M317.33,95.41c-1.39,0-2.52-1.13-2.52-2.52V57.57c0-1.39,1.13-2.52,2.52-2.52s2.52,1.13,2.52,2.52v35.32
				C319.85,94.28,318.72,95.41,317.33,95.41z"/>
		</g>
		<g>
			<path class="st0" d="M306.4,100.46c-1.39,0-2.52-1.13-2.52-2.52V52.53c0-1.39,1.13-2.52,2.52-2.52c1.39,0,2.52,1.13,2.52,2.52
				v45.41C308.92,99.33,307.79,100.46,306.4,100.46z"/>
		</g>
	</g>
</g>
<g>
	<g>
		<path class="st0" d="M49,108.81v23.21c-1.1-0.17-2.28-0.12-3.46,0.25c-3.54,1.1-5.64,4.38-4.7,7.33c0.94,2.95,4.57,4.45,8.11,3.35
			c2.71-0.84,4.81-2.97,5.11-5.24v-20.03l16.81,3.15v15.3c-1.08-0.16-2.23-0.1-3.38,0.26c-3.54,1.1-5.64,4.38-4.7,7.33
			c0.94,2.95,4.57,4.45,8.11,3.36c2.81-0.87,4.85-3.13,5.04-5.5v-28.19L49,108.81z"/>
	</g>
</g>
<g>
	<g>
		<rect x="523.01" y="134.18" class="st0" width="37.77" height="4.02"/>
		<path class="st0" d="M567.16,103.72c-0.4-0.95-1.06-1.75-1.9-2.31c-0.84-0.57-1.86-0.9-2.94-0.9h-3.4h-1.9h-0.12h-10.63v9.12
			l3.02,2.73c0.31,0.28,0.48,0.67,0.48,1.09v3.66c0,0.81-0.66,1.47-1.47,1.47h-5.69c-0.81,0-1.46-0.66-1.46-1.47v-3.66
			c0-0.41,0.18-0.81,0.48-1.09l2.92-2.64v-9.22h-17.09c-0.61,0-1.2,0.12-1.73,0.35c-0.8,0.34-1.48,0.9-1.96,1.61
			c-0.48,0.71-0.76,1.58-0.76,2.49v8.33c0,2.47,0.5,4.84,1.41,6.99c1.36,3.22,3.64,5.96,6.5,7.9c2.86,1.94,6.33,3.07,10.04,3.07
			c2.47,0,4.84-0.5,6.99-1.41c3.22-1.36,5.96-3.64,7.9-6.5c0.37-0.55,0.71-1.12,1.02-1.71c0.05,0,0.1,0,0.15,0
			c1.45,0,2.85-0.3,4.11-0.83c1.9-0.8,3.5-2.14,4.64-3.82c1.14-1.68,1.8-3.72,1.8-5.9c0-1.62,0-2.95,0-3.87c0-0.92,0-1.43,0-1.43
			C567.58,105.04,567.43,104.35,567.16,103.72z M563.56,107.2c0,0.92,0,2.24,0,3.87c0,0.91-0.18,1.76-0.51,2.54
			c-0.5,1.17-1.33,2.17-2.37,2.88c-0.67,0.45-1.43,0.78-2.24,0.96c0.32-1.33,0.49-2.73,0.49-4.15v-8.76h3.4
			c0.18,0,0.33,0.03,0.48,0.1c0.22,0.09,0.41,0.25,0.55,0.45c0.13,0.2,0.21,0.43,0.21,0.69
			C563.56,105.77,563.56,106.28,563.56,107.2z"/>
	</g>
</g>
</svg>
