<?xml version="1.0" ?><!DOCTYPE svg  PUBLIC '-//W3C//DTD SVG 1.1//EN'  'http://www.w3.org/Graphics/SVG/1.1/DTD/svg11.dtd'><svg enable-background="new 0 0 800 800" height="800px" id="GUIDE" version="1.1" viewBox="0 0 800 800" width="800px" xml:space="preserve" xmlns="http://www.w3.org/2000/svg" xmlns:cc="http://creativecommons.org/ns#" xmlns:dc="http://purl.org/dc/elements/1.1/" xmlns:inkscape="http://www.inkscape.org/namespaces/inkscape" xmlns:rdf="http://www.w3.org/1999/02/22-rdf-syntax-ns#" xmlns:sodipodi="http://sodipodi.sourceforge.net/DTD/sodipodi-0.dtd" xmlns:svg="http://www.w3.org/2000/svg" xmlns:xlink="http://www.w3.org/1999/xlink"><path d="M591.29,309.867c-25.382-26.619-55.325-47.271-88.994-61.383c-26.672-11.174-54.635-17.825-83.356-19.854  v-53.585h51.104l70.399,31.552c2.473,1.109,5.112,1.658,7.743,1.658c3.601,0,7.184-1.024,10.298-3.042  c5.389-3.491,8.642-9.475,8.642-15.896V95.574c0-7.462-4.384-14.23-11.192-17.284l-74.093-33.207  c-2.437-1.093-5.077-1.655-7.746-1.655H400c-10.458,0-18.939,8.479-18.939,18.937v33.21v60.531v72.516  c-61.203,4.332-118.656,29.638-163.458,72.353c-51.092,48.722-80.158,114.42-81.838,185c-1.68,70.579,24.227,137.589,72.945,188.688  c25.382,26.619,55.323,47.272,88.994,61.381c32.511,13.621,66.939,20.531,102.332,20.531c0.008,0,0.005,0,0.011,0  c68.201,0,132.965-25.935,182.347-73.02c51.099-48.722,80.161-114.42,81.843-185.003  C665.915,427.974,640.008,360.964,591.29,309.867z M418.938,95.574V81.3h51.105l59.207,26.538v52.236l-47.41-21.247  c-2.437-1.092-5.077-1.661-7.746-1.661h-55.156V95.574z M243.742,328.385c4.761-4.54,9.696-8.833,14.774-12.908  c0.855,1.229,1.685,2.476,2.475,3.753c22.418,36.34,11.092,84.146-25.249,106.566c-16.502,10.18-36.206,13.683-54.989,10.177  C190.891,396.209,211.917,358.732,243.742,328.385z M556.258,656.142C513.95,696.483,458.475,718.7,400.046,718.7  c-0.002,0-0.005,0-0.008,0c-62.555-0.006-120.77-24.926-163.917-70.179c-46.443-48.711-66.843-112.889-61.643-175.202  c6.795,1.224,13.667,1.841,20.534,1.841c21.157,0,42.223-5.779,60.616-17.128c54.116-33.385,70.981-104.574,37.597-158.689  c-1.054-1.705-2.161-3.374-3.294-5.015c33.335-18.583,71.025-28.501,110.033-28.501c0.011,0,0.025,0,0.036,0l0,0  c62.539,0.011,120.737,24.934,163.879,70.178c15.945,16.728,29.028,35.447,39.044,55.561c-14.053,4.074-27.011,11.484-37.9,21.869  c-36.848,35.134-38.239,93.691-3.106,130.544c13.599,14.26,31.404,23.649,50.463,27.109  C600.573,602.969,581.583,631.992,556.258,656.142z M626.371,497.652c-0.295,12.451-1.606,24.724-3.853,36.732  c-12.55-1.403-24.213-7.129-33.192-16.546c-20.72-21.729-19.897-56.271,1.833-76.99c7.306-6.968,16.186-11.656,25.8-13.769  C623.716,449.66,626.947,473.406,626.371,497.652z" fill="#041C3F"/><path d="M448.584,527.983c-15.125-15.863-35.531-24.599-57.455-24.599c-20.485,0-39.935,7.789-54.766,21.931  c-15.345,14.631-24.074,34.361-24.576,55.555c-0.505,21.197,7.273,41.321,21.905,56.666c15.126,15.863,35.529,24.599,57.453,24.599  c0.003,0,0.003,0,0.005,0c20.482,0,39.932-7.787,54.763-21.927C477.588,610.005,478.787,559.661,448.584,527.983z M419.773,612.796  c-7.754,7.393-17.92,11.464-28.625,11.464c-11.466,0-22.137-4.568-30.044-12.861c-7.648-8.021-11.717-18.543-11.453-29.623  c0.265-11.084,4.826-21.397,12.851-29.049c7.751-7.394,17.92-11.466,28.627-11.466c11.469,0,22.137,4.569,30.044,12.861  C436.963,570.685,436.337,597.004,419.773,612.796z" fill="#041C3F"/></svg>